<?xml version="1.0" encoding="UTF-8"?>
<!DOCTYPE svg PUBLIC "-//W3C//DTD SVG 1.1//EN" "http://www.w3.org/Graphics/SVG/1.1/DTD/svg11.dtd">
<!-- Creator: CorelDRAW 2021 (64 Bit) -->
<svg xmlns="http://www.w3.org/2000/svg" xml:space="preserve" width="273px" height="273px" version="1.1" style="shape-rendering:geometricPrecision; text-rendering:geometricPrecision; image-rendering:optimizeQuality; fill-rule:evenodd; clip-rule:evenodd"
viewBox="0 0 42.931 42.866"
 xmlns:xlink="http://www.w3.org/1999/xlink"
 xmlns:xodm="http://www.corel.com/coreldraw/odm/2003">
 <defs>
  <style type="text/css">
   <![CDATA[
    .str0 {stroke:#B24F00;stroke-width:0.045;stroke-miterlimit:22.9256}
    .fil7 {fill:#263138;fill-rule:nonzero}
    .fil4 {fill:#445964;fill-rule:nonzero}
    .fil11 {fill:#6F4438;fill-rule:nonzero}
    .fil15 {fill:#B24F00;fill-rule:nonzero}
    .fil0 {fill:#DFDFDF;fill-rule:nonzero}
    .fil1 {fill:#EBEBEB;fill-rule:nonzero}
    .fil6 {fill:#F4F4F4;fill-rule:nonzero}
    .fil2 {fill:#F9F9F9;fill-rule:nonzero}
    .fil9 {fill:#FF7101;fill-rule:nonzero}
    .fil17 {fill:#FF9A6C;fill-rule:nonzero}
    .fil16 {fill:#FFBF9C;fill-rule:nonzero}
    .fil5 {fill:#FFF2E7;fill-rule:nonzero}
    .fil3 {fill:white;fill-rule:nonzero}
    .fil8 {fill:black;fill-rule:nonzero;fill-opacity:0.301961}
    .fil14 {fill:#263138;fill-rule:nonzero;fill-opacity:0.301961}
    .fil10 {fill:white;fill-rule:nonzero;fill-opacity:0.301961}
    .fil12 {fill:#263138;fill-rule:nonzero;fill-opacity:0.501961}
    .fil13 {fill:white;fill-rule:nonzero;fill-opacity:0.501961}
    .fil18 {fill:white;fill-rule:nonzero;fill-opacity:0.600000}
   ]]>
  </style>
 </defs>
 <g id="Camada_x0020_1">
  <metadata id="CorelCorpID_0Corel-Layer"/>
  <g id="_2519410053968">
   <polygon class="fil0" points="40.147,5.229 31.74,5.229 31.74,4.497 40.147,4.497 "/>
   <path class="fil0" d="M33.774 1.866l0 -0.776c0,-0.052 0.041,-0.093 0.093,-0.093l0.034 0c0.051,0 0.093,0.041 0.093,0.093l0 0.036 0.576 0 0 0.197 -0.569 0 0 0.543 -0.227 0z"/>
   <path class="fil1" d="M34.439 4.489l-1.103 0c-0.117,0 -0.211,-0.095 -0.211,-0.211l0 -2.044c0,-0.117 0.094,-0.211 0.211,-0.211l1.103 0c0.117,0 0.211,0.094 0.211,0.211l0 2.044c0,0.116 -0.094,0.211 -0.211,0.211z"/>
   <path class="fil1" d="M34.28 2.023l-0.75 0 0 -0.216c0,-0.054 0.043,-0.097 0.097,-0.097l0.556 0c0.054,0 0.097,0.043 0.097,0.097l0 0.216z"/>
   <polygon class="fil2" points="34.65,4.039 33.989,4.039 33.989,2.407 34.65,2.407 "/>
   <path class="fil0" d="M34.28 2.014c0,0.014 -0.172,0.024 -0.384,0.024 -0.213,0 -0.385,-0.01 -0.385,-0.024 0,-0.013 0.172,-0.023 0.385,-0.023 0.212,0 0.384,0.01 0.384,0.023z"/>
   <path class="fil2" d="M33.219 3.645c-0.013,0 -0.024,-0.322 -0.024,-0.719 0,-0.397 0.011,-0.719 0.024,-0.719 0.013,0 0.024,0.322 0.024,0.719 0,0.397 -0.011,0.719 -0.024,0.719z"/>
   <path class="fil0" d="M35.865 1.866l0 -0.776c0,-0.052 0.042,-0.093 0.093,-0.093l0.035 0c0.051,0 0.092,0.041 0.092,0.093l0 0.036 0.577 0 0 0.197 -0.569 0 0 0.543 -0.228 0z"/>
   <path class="fil1" d="M36.531 4.489l-1.104 0c-0.116,0 -0.211,-0.095 -0.211,-0.211l0 -2.044c0,-0.117 0.095,-0.211 0.211,-0.211l1.104 0c0.116,0 0.211,0.094 0.211,0.211l0 2.044c0,0.116 -0.095,0.211 -0.211,0.211z"/>
   <path class="fil1" d="M36.372 2.023l-0.751 0 0 -0.216c0,-0.054 0.044,-0.097 0.098,-0.097l0.555 0c0.054,0 0.098,0.043 0.098,0.097l0 0.216z"/>
   <polygon class="fil2" points="36.742,4.039 36.081,4.039 36.081,2.407 36.742,2.407 "/>
   <path class="fil0" d="M36.372 2.014c0,0.014 -0.172,0.024 -0.385,0.024 -0.212,0 -0.384,-0.01 -0.384,-0.024 0,-0.013 0.172,-0.023 0.384,-0.023 0.213,0 0.385,0.01 0.385,0.023z"/>
   <path class="fil2" d="M35.31 3.645c-0.013,0 -0.024,-0.322 -0.024,-0.719 0,-0.397 0.011,-0.719 0.024,-0.719 0.013,0 0.024,0.322 0.024,0.719 0,0.397 -0.011,0.719 -0.024,0.719z"/>
   <path class="fil0" d="M37.945 1.866l0 -0.776c0,-0.052 0.042,-0.093 0.093,-0.093l0.035 0c0.051,0 0.092,0.041 0.092,0.093l0 0.036 0.577 0 0 0.197 -0.569 0 0 0.543 -0.228 0z"/>
   <path class="fil1" d="M38.611 4.489l-1.103 0c-0.117,0 -0.211,-0.095 -0.211,-0.211l0 -2.044c0,-0.117 0.094,-0.211 0.211,-0.211l1.103 0c0.116,0 0.211,0.094 0.211,0.211l0 2.044c0,0.116 -0.095,0.211 -0.211,0.211z"/>
   <path class="fil1" d="M38.452 2.023l-0.751 0 0 -0.216c0,-0.054 0.044,-0.097 0.098,-0.097l0.555 0c0.054,0 0.098,0.043 0.098,0.097l0 0.216z"/>
   <polygon class="fil2" points="38.822,4.039 38.161,4.039 38.161,2.407 38.822,2.407 "/>
   <path class="fil0" d="M38.452 2.014c0,0.014 -0.172,0.024 -0.385,0.024 -0.212,0 -0.384,-0.01 -0.384,-0.024 0,-0.013 0.172,-0.023 0.384,-0.023 0.213,0 0.385,0.01 0.385,0.023z"/>
   <path class="fil2" d="M37.39 3.645c-0.013,0 -0.024,-0.322 -0.024,-0.719 0,-0.397 0.011,-0.719 0.024,-0.719 0.014,0 0.024,0.322 0.024,0.719 0,0.397 -0.01,0.719 -0.024,0.719z"/>
   <polygon class="fil0" points="40.147,15.164 31.74,15.164 31.74,14.432 40.147,14.432 "/>
   <path class="fil0" d="M33.774 11.801l0 -0.776c0,-0.052 0.041,-0.093 0.093,-0.093l0.034 0c0.051,0 0.093,0.041 0.093,0.093l0 0.036 0.576 0 0 0.197 -0.569 0 0 0.543 -0.227 0z"/>
   <path class="fil1" d="M34.439 14.424l-1.103 0c-0.117,0 -0.211,-0.095 -0.211,-0.211l0 -2.044c0,-0.117 0.094,-0.211 0.211,-0.211l1.103 0c0.117,0 0.211,0.094 0.211,0.211l0 2.044c0,0.116 -0.094,0.211 -0.211,0.211z"/>
   <path class="fil1" d="M34.28 11.958l-0.75 0 0 -0.216c0,-0.053 0.043,-0.097 0.097,-0.097l0.556 0c0.054,0 0.097,0.043 0.097,0.097l0 0.216z"/>
   <polygon class="fil2" points="34.65,13.974 33.989,13.974 33.989,12.342 34.65,12.342 "/>
   <path class="fil0" d="M34.28 11.95c0,0.013 -0.172,0.023 -0.384,0.023 -0.213,0 -0.385,-0.01 -0.385,-0.023 0,-0.014 0.172,-0.024 0.385,-0.024 0.212,0 0.384,0.01 0.384,0.024z"/>
   <path class="fil2" d="M33.219 13.58c-0.013,0 -0.024,-0.322 -0.024,-0.719 0,-0.397 0.011,-0.718 0.024,-0.718 0.013,0 0.024,0.321 0.024,0.718 0,0.397 -0.011,0.719 -0.024,0.719z"/>
   <path class="fil0" d="M35.865 11.801l0 -0.776c0,-0.052 0.042,-0.093 0.093,-0.093l0.035 0c0.051,0 0.092,0.041 0.092,0.093l0 0.036 0.577 0 0 0.197 -0.569 0 0 0.543 -0.228 0z"/>
   <path class="fil1" d="M36.531 14.424l-1.104 0c-0.116,0 -0.211,-0.095 -0.211,-0.211l0 -2.044c0,-0.117 0.095,-0.211 0.211,-0.211l1.104 0c0.116,0 0.211,0.094 0.211,0.211l0 2.044c0,0.116 -0.095,0.211 -0.211,0.211z"/>
   <path class="fil1" d="M36.372 11.958l-0.751 0 0 -0.216c0,-0.053 0.044,-0.097 0.098,-0.097l0.555 0c0.054,0 0.098,0.043 0.098,0.097l0 0.216z"/>
   <polygon class="fil2" points="36.742,13.974 36.081,13.974 36.081,12.342 36.742,12.342 "/>
   <path class="fil0" d="M36.372 11.95c0,0.013 -0.172,0.023 -0.385,0.023 -0.212,0 -0.384,-0.01 -0.384,-0.023 0,-0.014 0.172,-0.024 0.384,-0.024 0.213,0 0.385,0.01 0.385,0.024z"/>
   <path class="fil2" d="M35.31 13.58c-0.013,0 -0.024,-0.322 -0.024,-0.719 0,-0.397 0.011,-0.718 0.024,-0.718 0.013,0 0.024,0.321 0.024,0.718 0,0.397 -0.011,0.719 -0.024,0.719z"/>
   <path class="fil0" d="M37.945 11.801l0 -0.776c0,-0.052 0.042,-0.093 0.093,-0.093l0.035 0c0.051,0 0.092,0.041 0.092,0.093l0 0.036 0.577 0 0 0.197 -0.569 0 0 0.543 -0.228 0z"/>
   <path class="fil1" d="M38.611 14.424l-1.103 0c-0.117,0 -0.211,-0.095 -0.211,-0.211l0 -2.044c0,-0.117 0.094,-0.211 0.211,-0.211l1.103 0c0.116,0 0.211,0.094 0.211,0.211l0 2.044c0,0.116 -0.095,0.211 -0.211,0.211z"/>
   <path class="fil1" d="M38.452 11.958l-0.751 0 0 -0.216c0,-0.053 0.044,-0.097 0.098,-0.097l0.555 0c0.054,0 0.098,0.043 0.098,0.097l0 0.216z"/>
   <polygon class="fil2" points="38.822,13.974 38.161,13.974 38.161,12.342 38.822,12.342 "/>
   <path class="fil0" d="M38.452 11.95c0,0.013 -0.172,0.023 -0.385,0.023 -0.212,0 -0.384,-0.01 -0.384,-0.023 0,-0.014 0.172,-0.024 0.384,-0.024 0.213,0 0.385,0.01 0.385,0.024z"/>
   <path class="fil2" d="M37.39 13.58c-0.013,0 -0.024,-0.322 -0.024,-0.719 0,-0.397 0.011,-0.718 0.024,-0.718 0.014,0 0.024,0.321 0.024,0.718 0,0.397 -0.01,0.719 -0.024,0.719z"/>
   <polygon class="fil0" points="40.147,9.132 31.709,9.132 31.709,8.4 40.147,8.4 "/>
   <polygon class="fil1" points="34.675,8.4 32.826,8.4 32.826,7.004 34.675,7.004 "/>
   <path class="fil0" d="M34.653 7.517c0,0.016 -0.405,0.028 -0.903,0.028 -0.499,0 -0.904,-0.012 -0.904,-0.028 0,-0.015 0.405,-0.027 0.904,-0.027 0.498,0 0.903,0.012 0.903,0.027z"/>
   <polygon class="fil3" points="34.653,8.122 33.458,8.122 33.458,7.762 34.653,7.762 "/>
   <polygon class="fil2" points="34.655,8.125 33.455,8.125 33.455,7.76 34.655,7.76 "/>
   <polygon class="fil1" points="36.872,8.4 35.024,8.4 35.024,7.004 36.872,7.004 "/>
   <path class="fil0" d="M36.85 7.517c0,0.016 -0.404,0.028 -0.903,0.028 -0.499,0 -0.903,-0.012 -0.903,-0.028 0,-0.015 0.404,-0.027 0.903,-0.027 0.499,0 0.903,0.012 0.903,0.027z"/>
   <polygon class="fil3" points="36.85,8.122 35.656,8.122 35.656,7.762 36.85,7.762 "/>
   <polygon class="fil2" points="35.658,8.12 36.848,8.12 36.848,7.765 35.658,7.765 "/>
   <polygon class="fil1" points="39.167,8.4 37.318,8.4 37.318,7.004 39.167,7.004 "/>
   <path class="fil0" d="M39.145 7.517c0,0.016 -0.405,0.028 -0.903,0.028 -0.499,0 -0.904,-0.012 -0.904,-0.028 0,-0.015 0.405,-0.027 0.904,-0.027 0.498,0 0.903,0.012 0.903,0.027z"/>
   <polygon class="fil3" points="39.145,8.122 37.95,8.122 37.95,7.762 39.145,7.762 "/>
   <polygon class="fil2" points="39.148,8.125 37.947,8.125 37.947,7.76 39.148,7.76 "/>
   <path class="fil4" d="M40.031 8.885c0,0.013 -0.014,0.024 -0.032,0.024 -0.017,0 -0.031,-0.011 -0.031,-0.024 0,-0.014 0.014,-0.024 0.031,-0.024 0.018,0 0.032,0.01 0.032,0.024z"/>
   <polygon class="fil5" points="31.941,36.255 27.455,36.255 27.455,35.068 31.941,35.068 "/>
   <path class="fil0" d="M30.044 37.505c0,-0.001 -0.001,-0.008 -0.001,-0.022 0,-0.016 -0.001,-0.036 -0.002,-0.061 0,-0.056 -0.002,-0.133 -0.003,-0.233 -0.002,-0.205 -0.004,-0.5 -0.008,-0.871l0.014 0.014c-1.024,0.002 -2.653,0.005 -4.485,0.009 0.01,-0.01 -0.023,0.023 0.023,-0.023l0 0 0 0.001 0 0.001 0 0.003 0 0.004 0 0.01 0 0.019 0 0.038 0 0.076c0,0.051 0,0.101 0,0.152 -0.001,0.1 -0.001,0.2 -0.001,0.299 0,0.198 0,0.393 0,0.584l-0.022 -0.023c1.277,0.004 2.395,0.008 3.196,0.01 0.4,0.003 0.72,0.005 0.944,0.007 0.109,0.001 0.194,0.002 0.255,0.003 0.027,0 0.049,0.001 0.067,0.001 0.015,0.001 0.023,0.001 0.023,0.002 0.001,0 -0.006,0.001 -0.02,0.001 -0.017,0.001 -0.038,0.001 -0.064,0.002 -0.06,0 -0.144,0.001 -0.251,0.002 -0.222,0.002 -0.541,0.004 -0.938,0.007 -0.806,0.002 -1.929,0.006 -3.212,0.01l-0.023 0 0 -0.022c0,-0.191 0,-0.386 0,-0.584 0,-0.099 0,-0.199 0,-0.299 0,-0.051 0,-0.101 0,-0.152l0 -0.076 0 -0.038 0 -0.019 0 -0.01 0 -0.004 0 -0.003 0 -0.001 0 -0.001 0 0c0.046,-0.046 0.013,-0.013 0.023,-0.023 1.832,0.004 3.461,0.007 4.485,0.009l0.014 0 0 0.014c-0.003,0.375 -0.006,0.672 -0.008,0.879 -0.001,0.098 -0.002,0.175 -0.003,0.23 0,0.024 -0.001,0.044 -0.001,0.059 -0.001,0.013 -0.001,0.019 -0.002,0.019z"/>
   <polygon class="fil5" points="26.318,1.792 21.832,1.792 21.832,0.605 26.318,0.605 "/>
   <path class="fil0" d="M24.421 3.042c0,0 -0.001,-0.008 -0.001,-0.022 -0.001,-0.016 -0.001,-0.035 -0.002,-0.06 -0.001,-0.056 -0.002,-0.134 -0.003,-0.234 -0.002,-0.205 -0.005,-0.499 -0.008,-0.871l0.014 0.014c-1.024,0.002 -2.653,0.005 -4.485,0.009 0.01,-0.01 -0.023,0.023 0.022,-0.023l0 0.001 0 0 0 0.001 0 0.003 0 0.005 0 0.009 0 0.019 0 0.038 0 0.076c0,0.051 0,0.102 0,0.152 0,0.1 0,0.2 0,0.299 0,0.198 0,0.393 0,0.584l-0.023 -0.022c1.278,0.004 2.395,0.007 3.197,0.01 0.399,0.002 0.72,0.005 0.943,0.006 0.109,0.001 0.195,0.002 0.256,0.003 0.027,0.001 0.049,0.001 0.066,0.002 0.015,0 0.023,0 0.024,0.001 0,0 -0.007,0.001 -0.021,0.001 -0.016,0.001 -0.037,0.001 -0.064,0.002 -0.06,0.001 -0.143,0.002 -0.25,0.003 -0.223,0.001 -0.541,0.003 -0.938,0.006 -0.806,0.003 -1.929,0.006 -3.213,0.01l-0.022 0 0 -0.022c0,-0.191 0,-0.386 0,-0.584 0,-0.099 0,-0.199 0,-0.299 0,-0.05 0,-0.101 0,-0.152l0 -0.076 0 -0.038 0 -0.019 0 -0.009 0 -0.005 0 -0.003 0 -0.001 0 0 0 -0.001c0.045,-0.045 0.012,-0.012 0.023,-0.023 1.832,0.004 3.461,0.007 4.485,0.009l0.014 0 0 0.014c-0.003,0.375 -0.006,0.672 -0.008,0.879 -0.001,0.099 -0.002,0.176 -0.003,0.231 -0.001,0.024 -0.001,0.043 -0.002,0.058 0,0.013 -0.001,0.019 -0.001,0.019z"/>
   <polygon class="fil6" points="12.988,35.148 8.503,35.148 8.503,33.961 12.988,33.961 "/>
   <path class="fil0" d="M11.092 36.398c-0.001,-0.001 -0.001,-0.008 -0.002,-0.022 0,-0.015 -0.001,-0.036 -0.001,-0.06 -0.001,-0.056 -0.002,-0.134 -0.004,-0.234 -0.001,-0.205 -0.004,-0.499 -0.007,-0.871l0.014 0.014c-1.024,0.002 -2.653,0.006 -4.486,0.009 0.011,-0.01 -0.023,0.023 0.023,-0.023l0 0.001 0 0 0 0.001 0 0.003 0 0.005 0 0.009 0 0.019 0 0.038 0 0.076c0,0.051 0,0.102 0,0.152 0,0.1 0,0.2 0,0.299 0,0.198 0,0.393 -0.001,0.584l-0.022 -0.022c1.277,0.004 2.395,0.007 3.197,0.01 0.399,0.002 0.719,0.005 0.943,0.006 0.109,0.001 0.194,0.002 0.255,0.003 0.028,0.001 0.05,0.001 0.067,0.001 0.015,0.001 0.023,0.001 0.024,0.002 0,0 -0.007,0.001 -0.021,0.001 -0.017,0.001 -0.038,0.001 -0.064,0.002 -0.06,0.001 -0.144,0.002 -0.25,0.003 -0.223,0.001 -0.542,0.003 -0.939,0.006 -0.805,0.003 -1.928,0.006 -3.212,0.01l-0.022 0 0 -0.022c0,-0.191 0,-0.386 -0.001,-0.584 0,-0.099 0,-0.199 0,-0.299 0,-0.05 0,-0.101 0,-0.152l0 -0.076 0 -0.038 0 -0.019 0 -0.009 0 -0.005 0 -0.003 0 -0.001 0 0 0 -0.001c0.046,-0.045 0.013,-0.012 0.023,-0.023 1.833,0.004 3.462,0.007 4.486,0.009l0.014 0 0 0.014c-0.004,0.375 -0.006,0.672 -0.008,0.879 -0.002,0.099 -0.003,0.176 -0.003,0.231 -0.001,0.024 -0.001,0.043 -0.002,0.058 0,0.013 -0.001,0.019 -0.001,0.019z"/>
   <polygon class="fil5" points="6.596,24.09 2.111,24.09 2.111,22.903 6.596,22.903 "/>
   <path class="fil0" d="M4.7 25.339c-0.001,0 -0.001,-0.007 -0.002,-0.021 0,-0.016 -0.001,-0.036 -0.001,-0.061 -0.001,-0.056 -0.002,-0.134 -0.004,-0.234 -0.001,-0.204 -0.004,-0.499 -0.007,-0.87l0.014 0.014c-1.025,0.002 -2.653,0.005 -4.486,0.009 0.01,-0.011 -0.023,0.022 0.023,-0.023l0 0 0 0.001 0 0.001 0 0.002 0 0.005 0 0.01 0 0.019 0 0.038 0 0.076c0,0.05 0,0.101 0,0.151 0,0.101 0,0.201 0,0.3 0,0.198 0,0.393 -0.001,0.583l-0.022 -0.022c1.277,0.004 2.395,0.008 3.197,0.01 0.399,0.003 0.719,0.005 0.943,0.007 0.109,0.001 0.194,0.002 0.255,0.002 0.028,0.001 0.05,0.002 0.067,0.002 0.015,0 0.023,0.001 0.024,0.001 0,0.001 -0.007,0.001 -0.021,0.002 -0.017,0 -0.038,0.001 -0.064,0.001 -0.06,0.001 -0.144,0.002 -0.25,0.003 -0.223,0.002 -0.542,0.004 -0.939,0.007 -0.805,0.002 -1.928,0.006 -3.212,0.01l-0.022 0 0 -0.023c0,-0.19 -0.001,-0.385 -0.001,-0.583 0,-0.099 0,-0.199 0,-0.3 0,-0.05 0,-0.101 0,-0.151l0 -0.076 0 -0.038 0 -0.019 0 -0.01 0 -0.005 0 -0.002 0 -0.001 0 -0.001 0 0c0.046,-0.046 0.013,-0.013 0.023,-0.023 1.833,0.004 3.461,0.007 4.486,0.009l0.014 0 0 0.014c-0.004,0.375 -0.006,0.672 -0.008,0.879 -0.002,0.098 -0.003,0.175 -0.004,0.23 0,0.024 -0.001,0.043 -0.001,0.059 0,0.012 -0.001,0.019 -0.001,0.018z"/>
   <path class="fil0" d="M25.506 29.818c0,-0.001 -0.001,-0.008 -0.001,-0.022 -0.001,-0.016 -0.001,-0.036 -0.002,-0.061 -0.001,-0.056 -0.002,-0.133 -0.003,-0.233 -0.002,-0.205 -0.005,-0.5 -0.008,-0.871l0.014 0.014c-1.024,0.002 -2.653,0.005 -4.485,0.009 0.01,-0.01 -0.023,0.023 0.022,-0.023l0 0 0 0.001 0 0.001 0 0.003 0 0.004 0 0.01 0 0.019 0 0.038 0 0.076c0,0.051 0,0.101 0,0.152 0,0.1 0,0.2 0,0.299 0,0.198 0,0.393 0,0.584l-0.022 -0.023c1.277,0.004 2.394,0.008 3.196,0.011 0.399,0.002 0.72,0.004 0.944,0.006 0.108,0.001 0.194,0.002 0.255,0.003 0.027,0 0.049,0.001 0.066,0.001 0.016,0.001 0.024,0.001 0.024,0.002 0.001,0 -0.006,0.001 -0.021,0.001 -0.016,0.001 -0.037,0.001 -0.064,0.002 -0.06,0 -0.143,0.001 -0.25,0.003 -0.223,0.001 -0.541,0.003 -0.938,0.006 -0.806,0.002 -1.929,0.006 -3.212,0.01l-0.023 0 0 -0.022c0,-0.191 0,-0.386 0,-0.584 0,-0.099 0,-0.199 0,-0.299 0,-0.051 0,-0.101 0,-0.152l0 -0.076 0 -0.038 0 -0.019 0 -0.01 0 -0.004 0 -0.003 0 -0.001 0 -0.001 0 0c0.045,-0.046 0.013,-0.013 0.023,-0.023 1.832,0.004 3.461,0.007 4.485,0.009l0.014 0 0 0.014c-0.003,0.375 -0.006,0.672 -0.008,0.879 -0.001,0.099 -0.002,0.175 -0.003,0.23 -0.001,0.024 -0.001,0.044 -0.002,0.059 0,0.013 0,0.019 -0.001,0.019z"/>
   <path class="fil0" d="M26.114 28.631c0,0 -0.001,-0.008 -0.001,-0.022 -0.001,-0.018 -0.002,-0.038 -0.002,-0.063 -0.001,-0.059 -0.003,-0.138 -0.004,-0.238 -0.002,-0.208 -0.005,-0.502 -0.009,-0.864l0.016 0.017c-0.698,0.002 -1.648,0.004 -2.695,0.006 -0.02,0.021 0.028,-0.028 0.023,-0.022l0 0 0 0 0 0.002 0 0.002 0 0.005 0 0.01 0 0.019 0 0.039 0 0.078c0,0.051 0,0.103 0,0.154 0,0.102 0,0.202 0,0.302 -0.001,0.198 -0.001,0.391 -0.001,0.575l-0.022 -0.022c0.778,0.005 1.448,0.008 1.928,0.011 0.237,0.002 0.427,0.004 0.562,0.006 0.063,0.001 0.113,0.002 0.151,0.002 0.035,0.001 0.053,0.002 0.054,0.003 0.001,0.001 -0.016,0.002 -0.049,0.003 -0.037,0 -0.085,0.001 -0.147,0.003 -0.133,0.001 -0.322,0.003 -0.556,0.006 -0.484,0.002 -1.159,0.006 -1.943,0.01l-0.022 0 0 -0.022c0,-0.184 0,-0.377 0,-0.575 0,-0.1 -0.001,-0.2 -0.001,-0.302 0,-0.051 0,-0.103 0,-0.154l0 -0.078 0 -0.039 0 -0.019 0 -0.01 0 -0.005 0 -0.002 0 -0.002 0 0 0 0c-0.005,0.004 0.044,-0.044 0.023,-0.023 1.047,0.002 1.997,0.004 2.695,0.006l0.017 0 0 0.016c-0.004,0.366 -0.007,0.663 -0.009,0.874 -0.002,0.098 -0.003,0.176 -0.004,0.234 -0.001,0.053 -0.003,0.08 -0.004,0.079z"/>
   <path class="fil0" d="M9.772 13.157c0,0 -0.001,-0.008 -0.001,-0.022 -0.001,-0.015 -0.001,-0.035 -0.002,-0.06 -0.001,-0.056 -0.002,-0.134 -0.003,-0.234 -0.002,-0.205 -0.005,-0.499 -0.008,-0.871l0.014 0.014c-1.024,0.002 -2.653,0.006 -4.485,0.009 0.01,-0.01 -0.023,0.023 0.022,-0.023l0 0.001 0 0 0 0.002 0 0.002 0 0.005 0 0.009 0 0.019 0 0.038 0 0.077c0,0.05 0,0.101 0,0.151 0,0.1 0,0.2 0,0.299 0,0.198 0,0.393 0,0.584l-0.022 -0.022c1.277,0.004 2.394,0.007 3.196,0.01 0.399,0.003 0.72,0.005 0.944,0.006 0.108,0.001 0.194,0.002 0.255,0.003 0.027,0.001 0.049,0.001 0.066,0.002 0.016,0 0.024,0.001 0.024,0.001 0.001,0 -0.006,0.001 -0.021,0.001 -0.016,0.001 -0.037,0.001 -0.064,0.002 -0.06,0.001 -0.143,0.002 -0.25,0.003 -0.223,0.001 -0.541,0.004 -0.938,0.006 -0.806,0.003 -1.929,0.006 -3.212,0.01l-0.023 0 0 -0.022c0,-0.191 0,-0.386 0,-0.584 0,-0.099 0,-0.199 0,-0.299 0,-0.05 0,-0.101 0,-0.151l0 -0.077 0 -0.038 0 -0.019 0 -0.009 0 -0.005 0 -0.002 0 -0.002 0 0 0 -0.001c0.045,-0.045 0.013,-0.012 0.023,-0.023 1.832,0.004 3.461,0.007 4.485,0.009l0.014 0.001 0 0.013c-0.003,0.375 -0.006,0.673 -0.008,0.879 -0.001,0.099 -0.002,0.176 -0.003,0.231 -0.001,0.024 -0.001,0.043 -0.002,0.058 0,0.013 0,0.019 -0.001,0.019z"/>
   <path class="fil0" d="M10.38 11.97c0,0 -0.001,-0.008 -0.001,-0.022 -0.001,-0.017 -0.002,-0.038 -0.002,-0.063 -0.001,-0.058 -0.003,-0.138 -0.004,-0.238 -0.002,-0.208 -0.005,-0.502 -0.009,-0.863l0.016 0.016c-0.698,0.002 -1.648,0.004 -2.695,0.007 -0.02,0.02 0.028,-0.028 0.023,-0.023l0 0 0 0.001 0 0.001 0 0.002 0 0.005 0 0.01 0 0.02 0 0.038 0 0.078c0,0.052 0,0.103 0,0.154 0,0.102 0,0.203 0,0.302 -0.001,0.198 -0.001,0.391 -0.001,0.575l-0.022 -0.021c0.778,0.004 1.448,0.007 1.928,0.01 0.237,0.002 0.427,0.004 0.562,0.006 0.063,0.001 0.113,0.002 0.151,0.003 0.035,0.001 0.053,0.001 0.054,0.002 0.001,0.001 -0.016,0.002 -0.049,0.003 -0.037,0.001 -0.085,0.002 -0.147,0.003 -0.133,0.001 -0.322,0.003 -0.556,0.006 -0.484,0.002 -1.159,0.006 -1.943,0.01l-0.022 0 0 -0.022c0,-0.184 0,-0.377 0,-0.575 0,-0.099 -0.001,-0.2 -0.001,-0.302 0,-0.051 0,-0.102 0,-0.154l0 -0.078 0 -0.038 0 -0.02 0 -0.01 0 -0.005 0 -0.002 0 -0.001 0 -0.001 0 0c-0.005,0.005 0.044,-0.044 0.023,-0.023 1.047,0.002 1.997,0.005 2.695,0.006l0.017 0 0 0.017c-0.004,0.365 -0.007,0.663 -0.009,0.873 -0.002,0.099 -0.003,0.177 -0.004,0.234 -0.001,0.053 -0.003,0.081 -0.004,0.079z"/>
   <path class="fil0" d="M5.431 2.401c0,0 -0.001,-0.007 -0.001,-0.021 -0.001,-0.016 -0.001,-0.036 -0.002,-0.061 0,-0.056 -0.002,-0.134 -0.003,-0.234 -0.002,-0.205 -0.004,-0.499 -0.008,-0.87l0.014 0.014c-1.024,0.002 -2.653,0.005 -4.485,0.008 0.01,-0.01 -0.023,0.023 0.023,-0.022l0 0 0 0.001 0 0.001 0 0.002 0 0.005 0 0.009 0 0.02 0 0.038 0 0.076c0,0.05 0,0.101 0,0.151 -0.001,0.101 -0.001,0.201 -0.001,0.3 0,0.198 0,0.392 0,0.583l-0.022 -0.022c1.277,0.004 2.395,0.008 3.196,0.01 0.4,0.003 0.72,0.005 0.944,0.006 0.109,0.002 0.194,0.003 0.255,0.003 0.027,0.001 0.049,0.001 0.067,0.002 0.015,0 0.023,0.001 0.023,0.001 0.001,0.001 -0.006,0.001 -0.021,0.002 -0.016,0 -0.037,0.001 -0.063,0.001 -0.06,0.001 -0.144,0.002 -0.251,0.003 -0.222,0.002 -0.541,0.004 -0.938,0.006 -0.806,0.003 -1.929,0.007 -3.212,0.011l-0.023 0 0 -0.023c0,-0.191 0,-0.385 0,-0.583 0,-0.099 0,-0.199 0,-0.3 0,-0.05 0,-0.101 0,-0.151l0 -0.076 0 -0.038 0 -0.02 0 -0.009 0 -0.005 0 -0.002 0 -0.001 0 -0.001 0 0c0.046,-0.046 0.013,-0.013 0.023,-0.023 1.832,0.003 3.461,0.007 4.485,0.009l0.014 0 0 0.014c-0.003,0.375 -0.006,0.672 -0.008,0.879 -0.001,0.098 -0.002,0.175 -0.003,0.23 0,0.024 -0.001,0.043 -0.001,0.058 -0.001,0.013 -0.001,0.02 -0.002,0.019z"/>
   <path class="fil0" d="M6.039 1.215c0,-0.001 -0.001,-0.009 -0.001,-0.023 -0.001,-0.017 -0.001,-0.038 -0.002,-0.063 -0.001,-0.058 -0.002,-0.138 -0.004,-0.238 -0.002,-0.208 -0.005,-0.502 -0.009,-0.863l0.016 0.016c-0.698,0.002 -1.648,0.004 -2.694,0.007 -0.021,0.02 0.027,-0.028 0.022,-0.023l0 0 0 0.001 0 0.001 0 0.003 0 0.005 0 0.009 0 0.02 0 0.039 0 0.077c0,0.052 0,0.103 0,0.154 0,0.102 0,0.203 0,0.302 0,0.199 -0.001,0.391 -0.001,0.576l-0.022 -0.022c0.778,0.004 1.448,0.008 1.928,0.01 0.237,0.003 0.427,0.005 0.562,0.006 0.063,0.001 0.113,0.002 0.151,0.003 0.035,0.001 0.054,0.002 0.054,0.003 0.001,0.001 -0.015,0.001 -0.048,0.002 -0.037,0.001 -0.086,0.002 -0.147,0.003 -0.134,0.001 -0.322,0.004 -0.557,0.006 -0.484,0.003 -1.159,0.006 -1.943,0.01l-0.021 0.001 0 -0.022c-0.001,-0.185 -0.001,-0.377 -0.001,-0.576 0,-0.099 0,-0.2 0,-0.302 0,-0.051 0,-0.102 -0.001,-0.154l0 -0.077 0 -0.039 0 -0.02 0 -0.009 0 -0.005 0 -0.003 0 -0.001 0 -0.001 0 0c-0.005,0.005 0.044,-0.043 0.024,-0.023 1.046,0.003 1.996,0.005 2.694,0.007l0.017 0 0 0.016c-0.004,0.366 -0.007,0.663 -0.009,0.873 -0.002,0.099 -0.003,0.177 -0.004,0.234 -0.001,0.054 -0.002,0.081 -0.004,0.08z"/>
   <path class="fil0" d="M41.014 32.449c-0.001,-0.001 -0.001,-0.008 -0.002,-0.022 0,-0.016 -0.001,-0.036 -0.001,-0.061 -0.001,-0.056 -0.002,-0.133 -0.004,-0.233 -0.001,-0.205 -0.004,-0.5 -0.007,-0.871l0.014 0.014c-1.025,0.002 -2.653,0.005 -4.486,0.009 0.01,-0.01 -0.023,0.023 0.023,-0.023l0 0 0 0.001 0 0.001 0 0.003 0 0.004 0 0.01 0 0.019 0 0.038 0 0.076c0,0.051 0,0.101 0,0.152 0,0.1 0,0.2 0,0.299 0,0.198 -0.001,0.393 -0.001,0.584l-0.022 -0.023c1.277,0.004 2.395,0.008 3.197,0.011 0.399,0.002 0.719,0.004 0.943,0.006 0.109,0.001 0.194,0.002 0.255,0.003 0.028,0 0.05,0.001 0.067,0.001 0.015,0.001 0.023,0.001 0.024,0.002 0,0 -0.007,0.001 -0.021,0.001 -0.017,0.001 -0.038,0.001 -0.064,0.002 -0.06,0 -0.144,0.001 -0.25,0.003 -0.223,0.001 -0.542,0.003 -0.939,0.006 -0.805,0.002 -1.929,0.006 -3.212,0.01l-0.022 0 0 -0.022c-0.001,-0.191 -0.001,-0.386 -0.001,-0.584 0,-0.099 0,-0.199 0,-0.299 0,-0.051 0,-0.101 0,-0.152l0 -0.076 0 -0.038 0 -0.019 0 -0.01 0 -0.004 0 -0.003 0 -0.001 0 -0.001 0 0c0.046,-0.046 0.013,-0.013 0.023,-0.023 1.833,0.004 3.461,0.007 4.486,0.009l0.014 0 -0.001 0.014c-0.003,0.375 -0.005,0.672 -0.007,0.879 -0.002,0.099 -0.003,0.175 -0.004,0.231 0,0.023 -0.001,0.043 -0.001,0.058 -0.001,0.013 -0.001,0.019 -0.001,0.019z"/>
   <path class="fil0" d="M41.622 31.262c-0.001,0 -0.001,-0.008 -0.002,-0.022 0,-0.017 -0.001,-0.038 -0.002,-0.063 -0.001,-0.059 -0.002,-0.138 -0.004,-0.238 -0.002,-0.208 -0.005,-0.502 -0.009,-0.864l0.017 0.017c-0.698,0.002 -1.648,0.004 -2.695,0.006 -0.021,0.021 0.027,-0.028 0.023,-0.022l0 0 0 0.001 0 0.001 0 0.002 0 0.005 0 0.01 0 0.019 0 0.039 -0.001 0.078c0,0.051 0,0.103 0,0.154 0,0.102 0,0.202 0,0.302 0,0.198 0,0.391 -0.001,0.575l-0.021 -0.022c0.778,0.005 1.447,0.008 1.928,0.011 0.236,0.002 0.426,0.004 0.561,0.006 0.063,0.001 0.113,0.002 0.152,0.002 0.034,0.001 0.053,0.002 0.054,0.003 0.001,0.001 -0.016,0.002 -0.049,0.003 -0.037,0 -0.086,0.001 -0.147,0.003 -0.134,0.001 -0.322,0.003 -0.557,0.006 -0.483,0.002 -1.158,0.006 -1.942,0.01l-0.022 0 0 -0.022c0,-0.184 -0.001,-0.377 -0.001,-0.575 0,-0.1 0,-0.2 0,-0.302 0,-0.051 0,-0.103 0,-0.154l0 -0.078 0 -0.039 0 -0.019 0 -0.01 0 -0.005 0 -0.002 0 -0.001 0 -0.001 0 0c-0.005,0.004 0.043,-0.044 0.023,-0.023 1.047,0.002 1.997,0.004 2.695,0.006l0.016 0 0 0.016c-0.004,0.366 -0.007,0.663 -0.009,0.874 -0.001,0.098 -0.003,0.176 -0.004,0.234 -0.001,0.053 -0.002,0.08 -0.003,0.079z"/>
   <path class="fil0" d="M42.089 20.866c0,0 -0.001,-0.007 -0.001,-0.021 -0.001,-0.016 -0.001,-0.036 -0.002,-0.061 -0.001,-0.056 -0.002,-0.134 -0.003,-0.234 -0.002,-0.204 -0.005,-0.499 -0.008,-0.87l0.014 0.014c-1.024,0.002 -2.653,0.005 -4.485,0.009 0.01,-0.011 -0.023,0.022 0.022,-0.023l0 0 0 0.001 0 0.001 0 0.002 0 0.005 0 0.009 0 0.02 0 0.038 0 0.076c0,0.05 0,0.101 0,0.151 0,0.101 0,0.201 0,0.3 0,0.198 0,0.393 0,0.583l-0.023 -0.022c1.278,0.004 2.395,0.008 3.197,0.01 0.399,0.003 0.72,0.005 0.943,0.006 0.109,0.002 0.195,0.003 0.256,0.003 0.027,0.001 0.049,0.002 0.066,0.002 0.015,0 0.023,0.001 0.024,0.001 0,0.001 -0.007,0.001 -0.021,0.002 -0.016,0 -0.037,0.001 -0.064,0.001 -0.06,0.001 -0.143,0.002 -0.25,0.003 -0.223,0.002 -0.541,0.004 -0.938,0.006 -0.806,0.003 -1.929,0.007 -3.213,0.011l-0.022 0 0 -0.023c0,-0.19 0,-0.385 0,-0.583 0,-0.099 0,-0.199 0,-0.3 0,-0.05 0,-0.101 0,-0.151l0 -0.076 0 -0.038 0 -0.02 0 -0.009 0 -0.005 0 -0.002 0 -0.001 0 -0.001 0 0c0.045,-0.046 0.012,-0.013 0.023,-0.023 1.832,0.003 3.461,0.007 4.485,0.009l0.014 0 0 0.014c-0.003,0.375 -0.006,0.672 -0.008,0.879 -0.001,0.098 -0.002,0.175 -0.003,0.23 -0.001,0.024 -0.001,0.043 -0.002,0.058 0,0.013 -0.001,0.02 -0.001,0.019z"/>
   <path class="fil0" d="M42.697 19.68c0,-0.001 -0.001,-0.009 -0.002,-0.023 0,-0.017 -0.001,-0.038 -0.001,-0.063 -0.001,-0.058 -0.003,-0.138 -0.004,-0.238 -0.003,-0.208 -0.006,-0.502 -0.009,-0.863l0.016 0.016c-0.698,0.002 -1.648,0.004 -2.695,0.007 -0.02,0.02 0.028,-0.028 0.023,-0.023l0 0 0 0.001 0 0.001 0 0.003 0 0.005 0 0.009 0 0.02 0 0.039 0 0.077c0,0.052 0,0.103 0,0.154 0,0.102 0,0.203 0,0.302 -0.001,0.199 -0.001,0.391 -0.001,0.576l-0.022 -0.022c0.778,0.004 1.448,0.008 1.928,0.01 0.237,0.003 0.427,0.005 0.562,0.006 0.063,0.001 0.113,0.002 0.151,0.003 0.035,0.001 0.053,0.002 0.054,0.003 0.001,0.001 -0.016,0.001 -0.049,0.002 -0.037,0.001 -0.085,0.002 -0.147,0.003 -0.134,0.001 -0.322,0.004 -0.556,0.006 -0.484,0.003 -1.159,0.006 -1.943,0.01l-0.022 0.001 0 -0.022c0,-0.185 0,-0.377 -0.001,-0.576 0,-0.099 0,-0.2 0,-0.302 0,-0.051 0,-0.102 0,-0.154l0 -0.077 0 -0.039 0 -0.02 0 -0.009 0 -0.005 0 -0.003 0 -0.001 0 -0.001 0 0c-0.005,0.005 0.044,-0.043 0.023,-0.023 1.047,0.003 1.997,0.005 2.695,0.007l0.017 0 0 0.016c-0.004,0.366 -0.007,0.663 -0.009,0.873 -0.002,0.099 -0.003,0.177 -0.004,0.234 -0.002,0.054 -0.003,0.081 -0.004,0.08z"/>
   <path class="fil5" d="M41.98 9.305l-0.071 0.118c-0.606,0.998 -1.7,1.599 -2.854,1.526 -0.148,-0.01 -0.296,-0.03 -0.441,-0.061 -1.049,-0.224 -1.962,-1.018 -2.34,-2.033 -0.223,-0.598 -0.285,-1.286 -0.707,-1.76 -0.549,-0.617 -1.482,-0.637 -2.302,-0.611 -0.821,0.026 -1.754,0.004 -2.301,-0.616 -0.342,-0.388 -0.451,-0.94 -0.424,-1.459 0.073,-1.376 1.032,-2.606 2.251,-3.218 1.22,-0.611 2.655,-0.666 3.99,-0.397 1.869,0.377 3.647,1.411 4.715,3.01 1.069,1.598 1.339,3.776 0.484,5.501z"/>
   <path class="fil5" d="M2.015 30.728l0.072 -0.119c0.605,-0.997 1.7,-1.598 2.853,-1.525 0.149,0.009 0.296,0.029 0.442,0.06 1.049,0.225 1.962,1.018 2.34,2.034 0.222,0.597 0.284,1.285 0.707,1.759 0.549,0.618 1.482,0.637 2.302,0.611 0.82,-0.025 1.754,-0.003 2.301,0.616 0.342,0.388 0.451,0.94 0.423,1.46 -0.073,1.376 -1.031,2.606 -2.251,3.217 -1.219,0.612 -2.655,0.667 -3.989,0.398 -1.869,-0.377 -3.647,-1.412 -4.716,-3.01 -1.068,-1.599 -1.339,-3.776 -0.484,-5.501z"/>
   <path class="fil5" d="M7.504 22.964c0,1.338 -1.084,2.423 -2.422,2.423 -1.338,0 -2.422,-1.085 -2.422,-2.423 0,-1.337 1.084,-2.422 2.422,-2.422 1.338,0 2.422,1.085 2.422,2.422z"/>
   <path class="fil7" d="M42.931 41.055c0,0.014 -9.611,0.024 -21.464,0.024 -11.858,0 -21.467,-0.01 -21.467,-0.024 0,-0.013 9.609,-0.024 21.467,-0.024 11.853,0 21.464,0.011 21.464,0.024z"/>
   <path class="fil7" d="M5.419 38.203c0,0 -0.418,-2.87 -0.383,-4.54 0.035,-1.67 -0.002,-3.548 -0.002,-3.548l0.193 0c0,0 -0.131,3.314 0.011,5.313 0.142,1.997 0.515,2.775 0.515,2.775l-0.334 0z"/>
   <path class="fil4" d="M6.662 26.886c-0.038,-0.098 -0.086,-0.2 -0.175,-0.256 -0.122,-0.078 -0.282,-0.046 -0.418,0.003 -0.581,0.205 -1.097,1.289 -1.331,1.859l0.771 2.599c1.393,-1.292 1.634,-2.987 1.153,-4.205z"/>
   <path class="fil7" d="M6.442 26.735c0.001,0 -0.003,0.012 -0.011,0.034 -0.01,0.025 -0.023,0.056 -0.038,0.094 -0.034,0.082 -0.081,0.201 -0.138,0.349 -0.114,0.295 -0.258,0.708 -0.388,1.173 -0.129,0.465 -0.217,0.893 -0.272,1.205 -0.028,0.156 -0.048,0.282 -0.061,0.37 -0.007,0.041 -0.013,0.074 -0.017,0.1 -0.004,0.023 -0.007,0.035 -0.008,0.035 -0.001,0 0,-0.012 0.002,-0.036 0.002,-0.026 0.006,-0.06 0.01,-0.101 0.01,-0.088 0.027,-0.215 0.052,-0.372 0.049,-0.313 0.134,-0.743 0.264,-1.21 0.129,-0.466 0.278,-0.879 0.397,-1.172 0.06,-0.147 0.11,-0.265 0.148,-0.346 0.017,-0.037 0.032,-0.068 0.043,-0.092 0.01,-0.021 0.016,-0.032 0.017,-0.031z"/>
   <path class="fil4" d="M5.166 31.715c-0.723,-0.4 -1.149,-1.152 -1.189,-1.977 -0.028,-0.577 0.149,-1.143 0.35,-1.685 0.018,-0.047 0.038,-0.097 0.082,-0.122 0.061,-0.034 0.137,-0.004 0.197,0.031 0.526,0.299 0.844,0.87 1.014,1.45 0.112,0.386 0.171,0.794 0.118,1.193 -0.052,0.399 -0.28,0.833 -0.572,1.11z"/>
   <path class="fil7" d="M5.166 31.715c-0.001,0 -0.002,-0.012 -0.003,-0.035 0,-0.026 -0.001,-0.06 -0.002,-0.1 0,-0.087 -0.003,-0.212 -0.01,-0.366 -0.014,-0.31 -0.055,-0.736 -0.135,-1.201 -0.08,-0.466 -0.177,-0.883 -0.249,-1.184 -0.035,-0.148 -0.064,-0.269 -0.086,-0.357 -0.009,-0.04 -0.016,-0.072 -0.022,-0.098 -0.005,-0.022 -0.007,-0.034 -0.005,-0.034 0.001,0 0.005,0.011 0.011,0.033 0.008,0.025 0.017,0.057 0.028,0.096 0.024,0.083 0.057,0.204 0.096,0.354 0.077,0.3 0.178,0.717 0.259,1.184 0.08,0.467 0.117,0.895 0.125,1.206 0.004,0.155 0.004,0.28 0.001,0.367 -0.002,0.041 -0.003,0.074 -0.004,0.1 -0.001,0.023 -0.003,0.035 -0.004,0.035z"/>
   <path class="fil8" d="M5.166 31.715c-0.723,-0.4 -1.149,-1.152 -1.189,-1.977 -0.028,-0.577 0.149,-1.143 0.35,-1.685 0.018,-0.047 0.038,-0.097 0.082,-0.122 0.061,-0.034 0.137,-0.004 0.197,0.031 0.526,0.299 0.844,0.87 1.014,1.45 0.112,0.386 0.171,0.794 0.118,1.193 -0.052,0.399 -0.28,0.833 -0.572,1.11z"/>
   <path class="fil4" d="M5.982 36.106c0.712,0.156 1.298,0.658 1.985,0.902 0.454,0.162 0.968,0.219 1.331,0.536 -0.087,-0.219 -0.294,-0.366 -0.494,-0.491 -0.565,-0.353 -1.17,-0.641 -1.799,-0.859 -0.323,-0.111 -0.674,-0.204 -1.003,-0.112l-0.02 0.024z"/>
   <path class="fil4" d="M4.953 36.74c-0.891,-0.015 -1.83,-0.774 -2.717,-0.819 0.928,-0.3 2.258,-0.055 2.717,0.819z"/>
   <path class="fil4" d="M5.301 34.601c0.453,-0.163 0.95,-0.17 1.425,-0.097 0.476,0.074 0.935,0.227 1.392,0.379 -0.046,-0.31 -0.297,-0.542 -0.532,-0.748 -0.177,-0.155 -0.355,-0.311 -0.559,-0.43 -0.203,-0.118 -0.434,-0.198 -0.669,-0.189 -0.284,0.012 -0.554,0.159 -0.74,0.373 -0.186,0.215 -0.286,0.43 -0.317,0.712z"/>
   <path class="fil4" d="M3.472 33.617c-0.561,-0.479 -1.411,-0.432 -2.149,-0.415 1.134,0.542 2.356,1.285 3.333,2.076 0.029,-0.521 -0.475,-1.056 -1.184,-1.661z"/>
   <path class="fil8" d="M3.472 33.617c-0.561,-0.479 -1.411,-0.432 -2.149,-0.415 1.134,0.542 2.356,1.285 3.333,2.076 0.029,-0.521 -0.475,-1.056 -1.184,-1.661z"/>
   <path class="fil4" d="M5.554 32.956c0.282,-0.188 0.567,-0.368 0.863,-0.502 0.295,-0.134 0.571,-0.348 0.856,-0.502 0.37,-0.2 0.69,-0.479 1.03,-0.727 0.339,-0.248 0.712,-0.473 1.128,-0.538 -0.339,-0.07 -0.693,-0.032 -1.027,0.059 -0.334,0.091 -0.651,0.234 -0.966,0.376 -0.438,0.197 -0.883,0.399 -1.241,0.719 -0.358,0.32 -0.681,0.636 -0.643,1.115z"/>
   <path class="fil7" d="M7.95 36.74c0,0.001 -0.01,-0.004 -0.028,-0.012 -0.021,-0.011 -0.047,-0.025 -0.078,-0.041 -0.067,-0.035 -0.163,-0.088 -0.284,-0.149 -0.061,-0.032 -0.127,-0.065 -0.199,-0.099 -0.072,-0.036 -0.15,-0.071 -0.232,-0.106 -0.164,-0.071 -0.348,-0.144 -0.549,-0.192 -0.2,-0.049 -0.399,-0.059 -0.571,-0.014 -0.088,0.021 -0.17,0.042 -0.243,0.072 -0.073,0.03 -0.138,0.065 -0.195,0.101 -0.115,0.072 -0.194,0.148 -0.246,0.203 -0.052,0.055 -0.077,0.089 -0.079,0.087 -0.001,0 0.004,-0.009 0.016,-0.026 0.011,-0.017 0.029,-0.04 0.054,-0.069 0.049,-0.058 0.128,-0.138 0.242,-0.214 0.058,-0.038 0.124,-0.075 0.198,-0.106 0.075,-0.032 0.158,-0.055 0.246,-0.076 0.176,-0.049 0.383,-0.038 0.586,0.012 0.203,0.048 0.388,0.123 0.553,0.195 0.082,0.036 0.16,0.073 0.231,0.109 0.072,0.035 0.138,0.07 0.198,0.103 0.12,0.063 0.215,0.119 0.281,0.158 0.029,0.019 0.054,0.034 0.074,0.046 0.017,0.011 0.026,0.017 0.025,0.018z"/>
   <path class="fil7" d="M4.288 36.298c0.001,-0.002 0.021,0.004 0.056,0.016 0.035,0.012 0.085,0.034 0.145,0.063 0.12,0.06 0.278,0.161 0.426,0.302 0.148,0.143 0.255,0.297 0.319,0.414 0.032,0.059 0.055,0.108 0.069,0.143 0.014,0.034 0.02,0.054 0.018,0.055 -0.005,0.002 -0.038,-0.073 -0.106,-0.187 -0.069,-0.113 -0.177,-0.262 -0.322,-0.402 -0.146,-0.139 -0.298,-0.241 -0.414,-0.305 -0.116,-0.064 -0.193,-0.094 -0.191,-0.099z"/>
   <path class="fil7" d="M2.316 33.572c0,-0.001 0.013,0.003 0.038,0.012 0.027,0.009 0.063,0.022 0.107,0.038 0.047,0.017 0.104,0.038 0.169,0.062 0.065,0.024 0.137,0.06 0.217,0.096 0.321,0.146 0.749,0.391 1.161,0.739 0.203,0.177 0.387,0.357 0.541,0.533 0.153,0.177 0.283,0.342 0.384,0.487 0.102,0.144 0.179,0.264 0.232,0.347 0.025,0.04 0.045,0.071 0.061,0.096 0.014,0.022 0.021,0.034 0.02,0.034 -0.001,0.001 -0.01,-0.01 -0.025,-0.03 -0.016,-0.021 -0.038,-0.052 -0.066,-0.093 -0.056,-0.081 -0.136,-0.199 -0.24,-0.341 -0.103,-0.142 -0.234,-0.306 -0.388,-0.48 -0.154,-0.174 -0.337,-0.352 -0.54,-0.528 -0.41,-0.347 -0.832,-0.593 -1.149,-0.744 -0.08,-0.036 -0.15,-0.074 -0.215,-0.1 -0.064,-0.025 -0.12,-0.048 -0.167,-0.067 -0.043,-0.018 -0.077,-0.032 -0.104,-0.043 -0.024,-0.011 -0.036,-0.017 -0.036,-0.018z"/>
   <path class="fil7" d="M6.639 34.1c-0.001,0.002 -0.026,-0.001 -0.071,-0.009 -0.025,-0.004 -0.052,-0.009 -0.082,-0.015 -0.032,-0.006 -0.069,-0.006 -0.11,-0.01 -0.16,-0.012 -0.393,0.001 -0.612,0.12 -0.111,0.056 -0.203,0.132 -0.279,0.207 -0.077,0.075 -0.135,0.153 -0.179,0.222 -0.09,0.137 -0.117,0.236 -0.123,0.234 -0.001,-0.001 0.004,-0.026 0.018,-0.07 0.017,-0.043 0.042,-0.106 0.086,-0.176 0.042,-0.071 0.1,-0.152 0.177,-0.23 0.077,-0.079 0.171,-0.157 0.285,-0.215 0.226,-0.123 0.467,-0.133 0.629,-0.115 0.041,0.006 0.079,0.008 0.111,0.016 0.03,0.007 0.057,0.014 0.082,0.02 0.044,0.012 0.068,0.019 0.068,0.021z"/>
   <path class="fil7" d="M7.535 31.321c0,0.001 -0.011,0.008 -0.034,0.021 -0.026,0.014 -0.059,0.032 -0.099,0.054 -0.087,0.046 -0.211,0.115 -0.363,0.204 -0.15,0.091 -0.327,0.201 -0.516,0.336 -0.188,0.135 -0.39,0.292 -0.577,0.483 -0.091,0.096 -0.176,0.197 -0.235,0.306 -0.059,0.112 -0.114,0.22 -0.166,0.324 -0.103,0.208 -0.187,0.4 -0.248,0.564 -0.06,0.164 -0.098,0.301 -0.12,0.397 -0.023,0.095 -0.031,0.149 -0.034,0.149 -0.001,-0.001 0,-0.014 0.003,-0.04 0.004,-0.026 0.009,-0.063 0.019,-0.112 0.019,-0.096 0.053,-0.235 0.111,-0.402 0.059,-0.166 0.141,-0.359 0.243,-0.569 0.051,-0.104 0.106,-0.213 0.164,-0.326 0.061,-0.114 0.147,-0.215 0.241,-0.313 0.188,-0.193 0.392,-0.35 0.582,-0.485 0.191,-0.134 0.37,-0.243 0.522,-0.331 0.153,-0.087 0.28,-0.153 0.368,-0.196 0.042,-0.02 0.076,-0.036 0.102,-0.049 0.024,-0.011 0.036,-0.016 0.037,-0.015z"/>
   <path class="fil7" d="M5.035 34.02c-0.002,0 -0.008,-0.026 -0.017,-0.075 -0.011,-0.055 -0.024,-0.124 -0.039,-0.206 -0.034,-0.174 -0.086,-0.413 -0.169,-0.669 -0.082,-0.257 -0.182,-0.48 -0.255,-0.641 -0.034,-0.076 -0.063,-0.14 -0.086,-0.191 -0.021,-0.045 -0.031,-0.071 -0.029,-0.072 0.002,-0.001 0.016,0.023 0.04,0.066 0.023,0.044 0.057,0.108 0.096,0.187 0.078,0.159 0.182,0.382 0.264,0.641 0.084,0.259 0.132,0.5 0.161,0.675 0.014,0.088 0.024,0.159 0.029,0.208 0.005,0.049 0.007,0.077 0.005,0.077z"/>
   <path class="fil4" d="M4.971 31.992c-0.023,-0.337 -0.132,-0.664 -0.29,-0.962 -0.433,-0.818 -1.246,-1.425 -2.153,-1.606 0.664,0.99 1.329,1.981 1.993,2.971l0.257 0.53c0.176,-0.288 0.215,-0.596 0.193,-0.933z"/>
   <polygon class="fil9" points="7.83,38.669 3.195,38.669 3.195,37.848 7.83,37.848 "/>
   <polygon class="fil9" points="3.541,38.506 3.936,41.055 7.013,41.055 7.484,38.506 "/>
   <path class="fil7" d="M7.828 38.67c0,0.009 -1.046,0.016 -2.335,0.016 -1.29,0 -2.336,-0.007 -2.336,-0.016 0,-0.009 1.046,-0.016 2.336,-0.016 1.289,0 2.335,0.007 2.335,0.016z"/>
   <polygon class="fil3" points="6.647,16.332 2.66,16.332 2.66,3.856 6.647,3.856 "/>
   <polygon class="fil9" points="2.66,8.584 6.647,4.83 6.647,3.856 5.754,3.856 2.66,6.839 "/>
   <polygon class="fil4" points="2.66,5.776 4.699,3.856 2.808,3.856 2.66,3.998 "/>
   <polygon class="fil9" points="6.647,8.489 2.66,12.333 2.66,14.078 6.647,10.324 "/>
   <polygon class="fil4" points="2.66,9.606 2.66,11.351 6.647,7.597 6.647,5.763 "/>
   <polygon class="fil4" points="6.647,11.481 2.66,15.325 2.66,16.332 3.443,16.332 6.647,13.316 "/>
   <polygon class="fil9" points="6.647,14.346 4.587,16.332 6.451,16.332 6.647,16.147 "/>
   <path class="fil7" d="M6.647 16.332c0,0 -0.001,-0.022 -0.002,-0.063 0,-0.042 0,-0.103 -0.001,-0.182 -0.001,-0.161 -0.002,-0.396 -0.003,-0.701 -0.002,-0.611 -0.004,-1.498 -0.007,-2.609 -0.002,-2.222 -0.006,-5.337 -0.01,-8.921l0.023 0.023c-1.262,0 -2.604,0 -3.987,0.001l0 0 0.024 -0.024c-0.004,5.018 -0.007,9.51 -0.009,12.476l-0.015 -0.016c1.25,0.004 2.245,0.007 2.929,0.009 0.341,0.001 0.605,0.003 0.785,0.003 0.088,0.001 0.156,0.002 0.203,0.002 0.046,0.001 0.07,0.002 0.07,0.002 0,0 -0.022,0.001 -0.067,0.001 -0.046,0.001 -0.113,0.001 -0.201,0.002 -0.178,0.001 -0.441,0.002 -0.781,0.004 -0.685,0.002 -1.683,0.005 -2.938,0.008l-0.016 0 0 -0.015c-0.002,-2.966 -0.005,-7.458 -0.008,-12.476l0 -0.025 0.024 0 0 0c1.383,0.001 2.725,0.001 3.987,0.001l0.023 0 0 0.024c-0.004,3.59 -0.008,6.712 -0.011,8.937 -0.002,1.109 -0.005,1.994 -0.006,2.604 -0.001,0.302 -0.002,0.536 -0.003,0.696 -0.001,0.078 -0.001,0.137 -0.002,0.179 0,0.04 -0.001,0.06 -0.001,0.06z"/>
   <path class="fil9" d="M2.477 15.829l4.352 0c0.166,0 0.3,0.134 0.3,0.3 0,0.166 -0.134,0.3 -0.3,0.3l-4.352 0c-0.165,0 -0.3,-0.134 -0.3,-0.3 0,-0.166 0.135,-0.3 0.3,-0.3z"/>
   <path class="fil9" d="M4.653 17.973c1.101,0 1.994,-0.893 1.994,-1.994l-3.987 0c0,1.101 0.892,1.994 1.993,1.994z"/>
   <path class="fil7" d="M6.845 15.844c0,0.013 -0.975,0.024 -2.179,0.024 -1.203,0 -2.178,-0.011 -2.178,-0.024 0,-0.013 0.975,-0.024 2.178,-0.024 1.204,0 2.179,0.011 2.179,0.024z"/>
   <path class="fil7" d="M6.845 16.43c0,0.013 -0.975,0.024 -2.179,0.024 -1.203,0 -2.178,-0.011 -2.178,-0.024 0,-0.014 0.975,-0.024 2.178,-0.024 1.204,0 2.179,0.01 2.179,0.024z"/>
   <path class="fil10" d="M5.99 14.346l-0.189 0c-0.102,0 -0.184,-0.083 -0.184,-0.185l0 -9.586c0,-0.102 0.082,-0.184 0.184,-0.184l0.189 0c0.102,0 0.184,0.082 0.184,0.184l0 9.586c0,0.102 -0.082,0.185 -0.184,0.185z"/>
   <path class="fil9" d="M6.829 3.856l-4.352 0c-0.165,0 -0.3,-0.135 -0.3,-0.301 0,-0.165 0.135,-0.3 0.3,-0.3l4.352 0c0.166,0 0.3,0.135 0.3,0.3 0,0.166 -0.134,0.301 -0.3,0.301z"/>
   <path class="fil9" d="M4.653 1.712c-1.101,0 -1.993,0.892 -1.993,1.993l3.987 0c0,-1.101 -0.893,-1.993 -1.994,-1.993z"/>
   <path class="fil7" d="M6.845 3.27c0,0.013 -0.975,0.024 -2.179,0.024 -1.203,0 -2.178,-0.011 -2.178,-0.024 0,-0.013 0.975,-0.024 2.178,-0.024 1.204,0 2.179,0.011 2.179,0.024z"/>
   <path class="fil7" d="M6.845 3.856c0,0.013 -0.975,0.024 -2.179,0.024 -1.203,0 -2.178,-0.011 -2.178,-0.024 0,-0.014 0.975,-0.025 2.178,-0.025 1.204,0 2.179,0.011 2.179,0.025z"/>
   <polygon class="fil11" points="29.222,23.294 9.679,23.294 9.679,1.887 29.222,1.887 "/>
   <polygon class="fil5" points="28.825,22.991 10.076,22.991 10.076,2.189 28.825,2.189 "/>
   <path class="fil0" d="M10.069 13.915c0,0 7.178,-0.28 8.035,0.292 0.858,0.572 2.259,7.976 2.259,7.976 0,0 8.453,-0.204 8.453,0 0,0.203 0,0.846 0,0.846l-18.749 0 0.002 -9.114z"/>
   <path class="fil7" d="M23.517 9.511c0.009,0.009 -1.98,2.013 -4.442,4.476 -2.464,2.463 -4.467,4.452 -4.477,4.443 -0.009,-0.01 1.98,-2.014 4.443,-4.477 2.462,-2.463 4.467,-4.452 4.476,-4.442z"/>
   <path class="fil12" d="M23.829 7.265c0.009,0.01 -0.947,0.981 -2.135,2.169 -1.188,1.189 -2.159,2.144 -2.169,2.135 -0.009,-0.009 0.947,-0.98 2.135,-2.169 1.188,-1.188 2.159,-2.144 2.169,-2.135z"/>
   <path class="fil13" d="M10.619 2.585l0.106 12.794c0,0 5.152,-1.084 6.426,-3.037 1.273,-1.953 2.807,-9.679 2.807,-9.679l-9.339 -0.078z"/>
   <path class="fil7" d="M18.518 6.516c0.01,0.01 -0.946,0.981 -2.134,2.169 -1.189,1.189 -2.16,2.144 -2.169,2.135 -0.01,-0.01 0.946,-0.98 2.135,-2.169 1.188,-1.188 2.159,-2.144 2.168,-2.135z"/>
   <path class="fil7" d="M19.525 15.498c0.01,0.01 -0.918,0.953 -2.072,2.106 -1.154,1.155 -2.097,2.082 -2.106,2.073 -0.01,-0.009 0.918,-0.952 2.072,-2.107 1.154,-1.153 2.097,-2.081 2.106,-2.072z"/>
   <path class="fil0" d="M25.678 31.414l-4.196 0 -1.686 -4.632 6.695 0 -0.813 4.632zm-4.131 -0.092l0 0 4.054 0 0.78 -4.448 -6.454 0 1.62 4.448z"/>
   <path class="fil9" d="M26.722 26.828l-7.272 0 0 -0.821c0,-0.342 0.278,-0.62 0.621,-0.62l6.03 0c0.343,0 0.621,0.278 0.621,0.62l0 0.821z"/>
   <path class="fil7" d="M26.722 26.828c0,0 -0.001,-0.016 -0.002,-0.045 0,-0.031 -0.001,-0.074 -0.002,-0.129 -0.001,-0.115 -0.003,-0.28 -0.005,-0.491 -0.003,-0.106 0.009,-0.226 -0.034,-0.347 -0.04,-0.121 -0.125,-0.24 -0.251,-0.32 -0.062,-0.04 -0.135,-0.069 -0.213,-0.084 -0.077,-0.016 -0.161,-0.009 -0.247,-0.01 -0.172,0 -0.354,0.001 -0.545,0.002 -0.765,0.001 -1.675,0.003 -2.685,0.005 -0.505,0 -1.035,0.001 -1.585,0.001 -0.275,0 -0.555,0 -0.839,0 -0.071,0 -0.142,0 -0.213,0 -0.071,0 -0.139,0.006 -0.206,0.027 -0.132,0.041 -0.25,0.13 -0.326,0.248 -0.051,0.082 -0.085,0.175 -0.092,0.27 -0.005,0.096 -0.002,0.198 -0.003,0.295 0,0.197 0,0.39 0,0.578l-0.024 -0.024c2.053,0.004 3.867,0.008 5.171,0.011 0.651,0.003 1.175,0.005 1.538,0.007 0.179,0.001 0.319,0.002 0.416,0.003 0.047,0.001 0.083,0.001 0.109,0.001 0.025,0.001 0.038,0.002 0.038,0.002 0.001,0.001 -0.011,0.001 -0.035,0.002 -0.026,0 -0.061,0.001 -0.105,0.001 -0.096,0.001 -0.234,0.002 -0.412,0.003 -0.362,0.002 -0.883,0.004 -1.532,0.007 -1.308,0.003 -3.128,0.007 -5.188,0.011l-0.023 0 0 -0.024c0,-0.188 -0.001,-0.381 -0.001,-0.578 0.002,-0.099 -0.002,-0.195 0.003,-0.299 0.008,-0.103 0.044,-0.204 0.1,-0.292 0.082,-0.127 0.209,-0.223 0.352,-0.268 0.071,-0.022 0.148,-0.029 0.22,-0.028 0.071,0 0.142,0 0.213,0 0.284,0 0.564,0 0.839,0 0.55,0.001 1.08,0.001 1.585,0.001 1.01,0.002 1.92,0.004 2.685,0.006 0.191,0 0.373,0.001 0.545,0.001 0.085,0.002 0.17,-0.004 0.253,0.013 0.081,0.016 0.157,0.047 0.222,0.089 0.13,0.085 0.218,0.21 0.258,0.335 0.043,0.128 0.029,0.251 0.03,0.358 -0.002,0.212 -0.004,0.378 -0.005,0.493 -0.001,0.054 -0.002,0.096 -0.002,0.127 -0.001,0.028 -0.002,0.042 -0.002,0.042z"/>
   <path class="fil9" d="M12.378 29.553l-2.475 -10.622c-0.235,-1.008 0.531,-1.973 1.567,-1.973l5.495 0c1.001,0 1.867,0.694 2.085,1.67l2.444 10.925 -9.116 0z"/>
   <path class="fil0" d="M16.953 32.328c0.054,-0.108 0,7.162 0,7.162l-4.104 1.046 0 0.536 7.308 0 0 -8.746 -3.204 0.002z"/>
   <path class="fil0" d="M22.145 32.328c-0.054,-0.108 0,7.162 0,7.162l4.104 1.046 0 0.536 -7.308 0 0 -8.746 3.204 0.002z"/>
   <path class="fil9" d="M26.72 31.368l-14.342 0 0 -1.815 13.241 0c0.608,0 1.101,0.493 1.101,1.101l0 0.714z"/>
   <path class="fil8" d="M17.098 31.355l-4.667 0c-0.041,0 -0.074,-0.033 -0.074,-0.074l0 -1.755c0,-0.04 0.033,-0.073 0.074,-0.073l4.667 0c0.041,0 0.074,0.033 0.074,0.073l0 1.755c0,0.041 -0.033,0.074 -0.074,0.074z"/>
   <polygon class="fil0" points="12.378,31.368 16.953,32.328 22.145,32.328 26.72,31.368 "/>
   <path class="fil7" d="M22.062 32.341c0,0.013 -1.144,0.021 -2.554,0.017 -1.411,-0.003 -2.555,-0.017 -2.555,-0.03 0,-0.014 1.144,-0.021 2.555,-0.018 1.41,0.004 2.554,0.018 2.554,0.031z"/>
   <path class="fil14" d="M12.807 29.466c0,-0.013 1.954,-0.024 4.364,-0.024 2.411,0 4.365,0.011 4.365,0.024 0,0.013 -1.954,0.024 -4.365,0.024 -2.41,0 -4.364,-0.011 -4.364,-0.024z"/>
   <polygon class="fil8" points="20.562,25.387 20.885,26.828 21.809,26.828 21.536,25.387 "/>
   <path class="fil8" d="M11.167 17.011c-0.884,0.024 -1.465,1.06 -1.264,1.92l2.455 10.535 1.592 0 -2.783 -12.455z"/>
   <path class="fil0" d="M16.542 31.414l-4.196 0 -1.687 -4.632 6.696 0 -0.813 4.632zm-4.132 -0.092l0 0 4.054 0 0.781 -4.448 -6.454 0 1.619 4.448z"/>
   <path class="fil15" d="M17.586 26.828l-7.272 0 0 -0.821c0,-0.342 0.278,-0.62 0.621,-0.62l6.03 0c0.343,0 0.621,0.278 0.621,0.62l0 0.821z"/>
   <path class="fil7 str0" d="M17.586 26.828c0,0 -0.002,-0.016 -0.002,-0.045 -0.001,-0.031 -0.001,-0.074 -0.002,-0.129 -0.001,-0.115 -0.003,-0.28 -0.006,-0.491 -0.003,-0.106 0.01,-0.226 -0.033,-0.347 -0.04,-0.121 -0.126,-0.24 -0.251,-0.32 -0.063,-0.04 -0.135,-0.069 -0.213,-0.084 -0.077,-0.016 -0.161,-0.009 -0.247,-0.01 -0.173,0 -0.355,0.001 -0.546,0.002 -0.764,0.001 -1.674,0.003 -2.684,0.005 -0.506,0 -1.036,0.001 -1.586,0.001 -0.275,0 -0.554,0 -0.838,0 -0.071,0 -0.142,0 -0.214,0 -0.071,0 -0.139,0.006 -0.205,0.027 -0.132,0.041 -0.25,0.13 -0.326,0.248 -0.052,0.082 -0.085,0.175 -0.092,0.27 -0.006,0.096 -0.002,0.198 -0.003,0.295 0,0.197 0,0.39 0,0.578l-0.024 -0.024c2.053,0.004 3.867,0.008 5.17,0.011 0.652,0.003 1.175,0.005 1.538,0.007 0.18,0.001 0.32,0.002 0.417,0.003 0.046,0.001 0.082,0.001 0.109,0.001 0.024,0.001 0.038,0.002 0.038,0.002 0,0.001 -0.012,0.001 -0.035,0.002 -0.026,0 -0.061,0.001 -0.106,0.001 -0.096,0.001 -0.234,0.002 -0.411,0.003 -0.362,0.002 -0.884,0.004 -1.533,0.007 -1.307,0.003 -3.127,0.007 -5.187,0.011l-0.024 0 0 -0.024c0,-0.188 0,-0.381 0,-0.578 0.001,-0.099 -0.003,-0.195 0.003,-0.299 0.008,-0.103 0.044,-0.204 0.1,-0.292 0.082,-0.127 0.209,-0.223 0.352,-0.268 0.071,-0.022 0.147,-0.029 0.219,-0.028 0.072,0 0.143,0 0.214,0 0.284,0 0.563,0 0.838,0 0.55,0.001 1.08,0.001 1.586,0.001 1.01,0.002 1.92,0.004 2.684,0.006 0.191,0 0.373,0.001 0.546,0.001 0.085,0.002 0.17,-0.004 0.252,0.013 0.082,0.016 0.157,0.047 0.222,0.089 0.131,0.085 0.218,0.21 0.259,0.335 0.043,0.128 0.028,0.251 0.03,0.358 -0.002,0.212 -0.004,0.378 -0.005,0.493 -0.001,0.054 -0.002,0.096 -0.003,0.127 0,0.028 -0.001,0.042 -0.001,0.042z"/>
   <path class="fil14" d="M22.221 39.488c0,0.013 -1.183,0.024 -2.641,0.024 -1.459,0 -2.642,-0.011 -2.642,-0.024 0,-0.013 1.183,-0.024 2.642,-0.024 1.458,0 2.641,0.011 2.641,0.024z"/>
   <path class="fil8" d="M17.159 32.49c0,0 -0.084,6.616 0.268,6.674 0.351,0.059 0.785,-4.969 2.296,-5.796 1.068,-0.583 2.183,-0.878 2.183,-0.878l-4.747 0z"/>
   <polygon class="fil8" points="26.249,41.072 12.849,41.072 12.849,40.536 26.249,40.536 "/>
   <path class="fil8" d="M15.25 40.158l2.103 -0.67 0.897 0 -0.548 0.665c-0.075,0.092 -0.188,0.145 -0.307,0.145l-2.123 0c-0.082,0 -0.1,-0.115 -0.022,-0.14z"/>
   <path class="fil16" d="M34.286 6.305l-0.095 0.002c-0.954,0.02 -1.733,0.768 -1.79,1.72 -0.054,0.886 -0.101,1.865 -0.086,2.339 0.032,0.982 1.018,1.115 1.018,1.115l-0.059 1.182 0.872 0.745 1.51 -0.867 0.124 -4.284c0.068,-1.022 -0.471,-1.913 -1.494,-1.952z"/>
   <path class="fil17" d="M33.333 11.481c0,0 0.62,0.024 1.271,-0.404 0,0 -0.301,0.716 -1.283,0.648l0.012 -0.244z"/>
   <path class="fil7" d="M32.486 7.575c0,0 0.247,-0.621 0.54,-0.77 0.356,-0.181 0.519,0.21 0.859,0.107 0.34,-0.102 0.217,0.233 0.719,0.091 0.349,-0.098 0.183,0.401 0.354,0.749 0.164,0.335 0.377,0.518 0.394,0.665 0.164,1.38 0.049,1.012 0.353,0.824 0.078,-0.048 0.26,-0.169 0.289,-0.555 0.039,-0.5 0.046,-1.107 -0.073,-1.459 -0.1,-0.297 -0.274,-0.5 -0.585,-0.722 -0.489,-0.349 -1.152,-0.344 -1.601,-0.289 -0.449,0.054 -1.305,0.589 -1.249,1.359z"/>
   <path class="fil16" d="M35.642 9.216c0.003,-0.152 0.131,-0.274 0.282,-0.263 0.184,0.014 0.39,0.114 0.386,0.493 -0.008,0.672 -0.681,0.525 -0.682,0.506 -0.001,-0.013 0.008,-0.455 0.014,-0.736z"/>
   <path class="fil17" d="M35.777 9.701c0.003,-0.003 0.012,0.008 0.031,0.017 0.019,0.009 0.052,0.016 0.088,0.003 0.071,-0.025 0.132,-0.137 0.137,-0.258 0.002,-0.061 -0.01,-0.12 -0.031,-0.168 -0.02,-0.05 -0.051,-0.084 -0.087,-0.091 -0.036,-0.009 -0.061,0.012 -0.07,0.031 -0.009,0.019 -0.005,0.032 -0.008,0.033 -0.002,0.002 -0.015,-0.011 -0.009,-0.039 0.003,-0.013 0.011,-0.029 0.027,-0.041 0.016,-0.013 0.04,-0.02 0.065,-0.017 0.052,0.004 0.098,0.053 0.121,0.106 0.026,0.053 0.041,0.119 0.039,0.188 -0.006,0.135 -0.077,0.261 -0.175,0.288 -0.047,0.012 -0.086,-0.003 -0.107,-0.019 -0.02,-0.017 -0.023,-0.032 -0.021,-0.033z"/>
   <path class="fil7" d="M32.782 8.949c0,0.074 0.062,0.136 0.139,0.137 0.077,0.002 0.14,-0.056 0.141,-0.13 0,-0.074 -0.062,-0.136 -0.14,-0.138 -0.077,-0.001 -0.14,0.057 -0.14,0.131z"/>
   <path class="fil7" d="M32.533 8.494c0.018,0.017 0.121,-0.064 0.272,-0.068 0.15,-0.007 0.263,0.067 0.279,0.048 0.008,-0.008 -0.011,-0.041 -0.06,-0.074 -0.048,-0.034 -0.13,-0.065 -0.224,-0.062 -0.094,0.004 -0.172,0.041 -0.216,0.077 -0.045,0.037 -0.06,0.071 -0.051,0.079z"/>
   <path class="fil7" d="M34.146 8.949c0,0.074 0.062,0.136 0.139,0.137 0.077,0.002 0.14,-0.056 0.141,-0.13 0,-0.074 -0.062,-0.136 -0.14,-0.137 -0.077,-0.002 -0.14,0.056 -0.14,0.13z"/>
   <path class="fil7" d="M34.01 8.483c0.018,0.018 0.122,-0.064 0.273,-0.068 0.15,-0.006 0.263,0.068 0.279,0.049 0.007,-0.009 -0.011,-0.041 -0.06,-0.075 -0.049,-0.033 -0.131,-0.064 -0.224,-0.061 -0.094,0.003 -0.172,0.04 -0.216,0.077 -0.046,0.037 -0.06,0.07 -0.052,0.078z"/>
   <path class="fil7" d="M33.506 9.657c0,-0.008 -0.094,-0.022 -0.246,-0.036 -0.039,-0.003 -0.076,-0.01 -0.083,-0.036 -0.01,-0.027 0.005,-0.069 0.022,-0.115 0.034,-0.094 0.069,-0.192 0.105,-0.296 0.145,-0.422 0.249,-0.768 0.232,-0.774 -0.017,-0.005 -0.149,0.332 -0.294,0.754 -0.034,0.104 -0.068,0.203 -0.1,0.298 -0.013,0.044 -0.036,0.094 -0.015,0.151 0.011,0.029 0.04,0.049 0.065,0.054 0.025,0.007 0.047,0.007 0.066,0.008 0.153,0.003 0.247,0.001 0.248,-0.008z"/>
   <path class="fil7" d="M33.907 7.966c0.018,0.039 0.166,0.005 0.344,0.01 0.178,0.001 0.325,0.038 0.345,0 0.009,-0.019 -0.02,-0.055 -0.081,-0.089 -0.06,-0.034 -0.155,-0.063 -0.261,-0.064 -0.107,-0.002 -0.202,0.024 -0.264,0.057 -0.062,0.032 -0.092,0.067 -0.083,0.086z"/>
   <path class="fil7" d="M32.613 7.931c0.023,0.038 0.137,0.019 0.269,0.036 0.133,0.013 0.24,0.057 0.271,0.025 0.014,-0.015 0.001,-0.052 -0.043,-0.091 -0.043,-0.038 -0.12,-0.076 -0.211,-0.086 -0.091,-0.01 -0.174,0.009 -0.224,0.037 -0.052,0.028 -0.072,0.061 -0.062,0.079z"/>
   <path class="fil7" d="M34.958 6.882c-0.221,-0.607 -0.498,-0.898 -0.739,-1.026 -0.24,-0.127 -1.076,-0.021 -1.335,0.064 -0.258,0.084 -0.35,0.435 -0.413,0.7 -0.041,0.168 -0.024,0.358 -0.126,0.498 -0.063,0.085 -0.161,0.136 -0.237,0.21 -0.133,0.131 -0.162,-0.118 -0.111,0.061 0.051,0.179 0.198,0.716 0.394,0.807 0.032,-0.385 0.072,-0.623 0.229,-0.908 0.093,-0.169 0.164,-0.388 0.342,-0.462 0.366,-0.152 0.841,0.221 1.087,0.359l0.909 -0.303z"/>
   <path class="fil7" d="M34.6 6.23c0.555,-0.091 1.023,-0.089 1.369,0.293 0.18,0.199 0.29,0.406 0.315,0.657 0.024,0.23 0.083,0.55 0.026,0.843 -0.006,0.031 -0.063,0.118 -0.095,0.128 -0.06,0.019 -0.115,-0.033 -0.155,-0.076 -0.04,-0.043 -0.115,-0.083 -0.161,-0.046l-1.299 -1.799z"/>
   <path class="fil7" d="M31.682 6.914c0.14,-0.217 0.333,-0.409 0.517,-0.642 0.21,-0.268 0.566,-0.46 0.887,-0.574 0.317,-0.112 0.71,-0.069 1.016,0.072 0.306,0.141 0.545,0.453 0.666,0.767l-0.719 0.648c-0.135,-0.111 -0.375,-0.228 -0.533,-0.304 -0.158,-0.075 -0.341,-0.112 -0.51,-0.064 -0.175,0.05 -0.315,0.187 -0.409,0.343 -0.093,0.157 -0.146,0.334 -0.197,0.509 -0.168,-0.104 -0.479,-0.281 -0.646,-0.385 -0.056,-0.034 -0.115,-0.074 -0.136,-0.135 -0.027,-0.08 0.018,-0.165 0.064,-0.235z"/>
   <path class="fil4" d="M32.72 7.092c-0.005,-0.004 0.06,-0.099 0.189,-0.231 0.065,-0.067 0.145,-0.144 0.243,-0.219 0.096,-0.076 0.226,-0.143 0.373,-0.155 0.145,-0.015 0.293,0.038 0.38,0.134 0.088,0.093 0.128,0.204 0.15,0.294 0.022,0.091 0.028,0.167 0.031,0.218 0.003,0.052 0.003,0.08 -0.001,0.081 -0.009,0.001 -0.016,-0.115 -0.063,-0.29 -0.025,-0.086 -0.067,-0.188 -0.149,-0.271 -0.081,-0.085 -0.21,-0.13 -0.344,-0.117 -0.136,0.011 -0.255,0.07 -0.351,0.142 -0.096,0.071 -0.178,0.145 -0.245,0.207 -0.134,0.125 -0.208,0.212 -0.213,0.207z"/>
   <path class="fil4" d="M34.472 6.064c0.006,-0.01 0.18,0.153 0.262,0.426 0.084,0.272 0.03,0.504 0.019,0.499 -0.015,-0.001 0.015,-0.225 -0.066,-0.485 -0.077,-0.261 -0.227,-0.43 -0.215,-0.44z"/>
   <path class="fil4" d="M32.515 6.714c-0.003,-0.001 0.014,-0.034 0.05,-0.091 0.035,-0.056 0.09,-0.136 0.169,-0.227 0.078,-0.09 0.183,-0.191 0.322,-0.273 0.137,-0.081 0.311,-0.142 0.5,-0.133 0.188,0.008 0.357,0.085 0.483,0.184 0.127,0.1 0.211,0.223 0.262,0.332 0.052,0.11 0.074,0.206 0.084,0.272 0.01,0.066 0.009,0.103 0.006,0.104 -0.01,0.002 -0.014,-0.151 -0.121,-0.361 -0.053,-0.103 -0.136,-0.218 -0.258,-0.311 -0.122,-0.093 -0.283,-0.164 -0.459,-0.172 -0.176,-0.007 -0.342,0.048 -0.475,0.124 -0.134,0.076 -0.238,0.172 -0.319,0.257 -0.159,0.174 -0.237,0.301 -0.244,0.295z"/>
   <path class="fil4" d="M35.137 7.741c0.011,-0.009 0.159,0.209 0.428,0.375 0.067,0.041 0.133,0.079 0.193,0.071 0.06,-0.007 0.107,-0.049 0.137,-0.087 0.058,-0.082 0.079,-0.146 0.088,-0.142 0.003,0.002 -0.004,0.067 -0.06,0.162 -0.03,0.045 -0.08,0.098 -0.16,0.111 -0.081,0.012 -0.157,-0.033 -0.223,-0.074 -0.28,-0.173 -0.415,-0.412 -0.403,-0.416z"/>
   <path class="fil7" d="M34.098 9.832c-0.025,-0.002 -0.05,0.128 -0.161,0.231 -0.109,0.104 -0.243,0.122 -0.243,0.147 0,0.011 0.035,0.023 0.094,0.016 0.059,-0.006 0.142,-0.036 0.211,-0.101 0.068,-0.064 0.103,-0.143 0.112,-0.2 0.01,-0.058 -0.001,-0.093 -0.013,-0.093z"/>
   <path class="fil4" d="M32.467 7.552c0.004,-0.002 0.004,0.053 -0.066,0.09 -0.032,0.017 -0.086,0.024 -0.132,-0.009 -0.043,-0.031 -0.076,-0.093 -0.056,-0.16l0.02 0.03c-0.053,-0.004 -0.111,-0.013 -0.169,-0.03 -0.151,-0.042 -0.27,-0.126 -0.342,-0.197 -0.073,-0.072 -0.102,-0.128 -0.097,-0.131 0.006,-0.005 0.044,0.044 0.12,0.106 0.075,0.062 0.19,0.136 0.333,0.176 0.054,0.016 0.108,0.026 0.158,0.03l0.03 0.003 -0.01 0.027c-0.014,0.042 0.006,0.091 0.036,0.115 0.031,0.025 0.07,0.024 0.098,0.014 0.06,-0.022 0.071,-0.067 0.077,-0.064z"/>
   <path class="fil7" d="M32.291 9.834c0.104,-0.076 0.275,-0.019 0.314,0.104 0.057,-0.081 0.162,-0.124 0.259,-0.107 0.098,0.017 0.182,0.093 0.209,0.188 0.045,-0.145 0.272,-0.183 0.362,-0.062 0.037,-0.06 0.115,-0.092 0.184,-0.073 -0.008,-0.067 0.027,-0.136 0.086,-0.168 0.059,-0.031 0.136,-0.024 0.187,0.019 0.076,-0.137 0.288,-0.172 0.404,-0.067 0.019,-0.063 0.084,-0.109 0.15,-0.107 0.066,0.003 0.127,0.053 0.142,0.118 0.064,-0.084 0.187,-0.115 0.283,-0.074 -0.001,-0.098 0.11,-0.18 0.204,-0.15 -0.024,-0.084 0.199,-0.091 0.199,-0.091 0,0 0.009,-0.154 0.04,-0.179 0.03,-0.024 0.083,-0.029 0.103,0.004 -0.017,-0.067 0.025,-0.143 0.09,-0.165 0.065,-0.023 0.144,0.011 0.173,0.074 0.017,0.037 0.017,0.079 0.023,0.119 0.019,0.13 0.092,0.285 -0.003,0.376 -0.016,0.016 -0.038,0.03 -0.045,0.052 -0.012,0.037 0.025,0.073 0.028,0.113 0.003,0.046 -0.039,0.081 -0.058,0.123 -0.028,0.062 -0.003,0.134 0.002,0.202 0.005,0.068 -0.034,0.154 -0.101,0.147 0.05,0.099 0.016,0.233 -0.075,0.296 0.052,0.115 -0.016,0.268 -0.137,0.306 0.045,0.036 0.042,0.11 0.009,0.157 -0.033,0.048 -0.087,0.075 -0.139,0.101 0.047,0.024 0.053,0.095 0.024,0.139 -0.03,0.044 -0.082,0.067 -0.133,0.081 -0.022,0.006 -0.047,0.013 -0.06,0.032 -0.024,0.035 0.009,0.083 0.002,0.125 -0.01,0.065 -0.101,0.083 -0.129,0.143 -0.024,0.053 0.008,0.127 -0.035,0.167 -0.027,0.026 -0.071,0.021 -0.107,0.034 -0.063,0.022 -0.091,0.094 -0.132,0.148 -0.076,0.101 -0.206,0.146 -0.329,0.177 -0.063,0.016 -0.126,0.029 -0.189,0.041 -0.127,0.024 -0.256,0.039 -0.384,0.055 -0.063,0.007 -0.142,0.008 -0.175,-0.046 -0.089,0.109 -0.291,0.085 -0.352,-0.042 -0.115,0.031 -0.234,-0.018 -0.342,-0.065 -0.038,-0.016 -0.076,-0.033 -0.113,-0.049 -0.112,-0.049 -0.237,-0.112 -0.27,-0.229 -0.146,-0.021 -0.243,-0.205 -0.177,-0.338 -0.051,0.015 -0.1,-0.037 -0.108,-0.089 -0.008,-0.053 0.01,-0.105 0.02,-0.157 0.039,-0.213 -0.074,-0.429 -0.045,-0.643 0.021,-0.15 0.11,-0.298 0.067,-0.443 -0.009,-0.03 -0.023,-0.06 -0.021,-0.091 0.002,-0.031 0.031,-0.063 0.061,-0.054 -0.039,-0.085 0.047,-0.197 0.139,-0.183l-0.105 0.031z"/>
   <path class="fil3" d="M34.022 9.816c-0.024,-0.002 -0.029,0.164 -0.174,0.277 -0.145,0.114 -0.321,0.09 -0.323,0.113 -0.003,0.01 0.038,0.033 0.113,0.038 0.073,0.004 0.18,-0.016 0.269,-0.085 0.088,-0.07 0.128,-0.165 0.136,-0.233 0.008,-0.069 -0.009,-0.11 -0.021,-0.11z"/>
   <path class="fil4" d="M35.146 10.743c-0.003,-0.003 0.021,-0.027 0.038,-0.075 0.018,-0.049 0.024,-0.121 0.016,-0.2 -0.012,-0.161 -0.056,-0.285 -0.048,-0.288 0.006,-0.003 0.062,0.12 0.075,0.285 0.008,0.082 -0.002,0.16 -0.026,0.21 -0.023,0.051 -0.054,0.07 -0.055,0.068z"/>
   <path class="fil4" d="M35.313 10.606c-0.008,-0.004 0.066,-0.126 0.071,-0.296 0.009,-0.17 -0.054,-0.298 -0.046,-0.3 0.003,-0.002 0.022,0.028 0.041,0.082 0.02,0.053 0.036,0.132 0.032,0.219 -0.004,0.088 -0.026,0.165 -0.05,0.216 -0.024,0.052 -0.046,0.08 -0.048,0.079z"/>
   <path class="fil4" d="M33.417 11.762c-0.002,0.002 -0.034,-0.029 -0.071,-0.09 -0.038,-0.061 -0.078,-0.154 -0.095,-0.263 -0.017,-0.109 -0.008,-0.21 0.009,-0.279 0.017,-0.07 0.038,-0.11 0.041,-0.109 0.004,0.002 -0.01,0.043 -0.022,0.112 -0.012,0.069 -0.018,0.166 -0.002,0.272 0.017,0.105 0.053,0.196 0.085,0.257 0.033,0.062 0.059,0.098 0.055,0.1z"/>
   <path class="fil4" d="M33.592 11.752c-0.004,0.005 -0.101,-0.09 -0.145,-0.248 -0.046,-0.157 -0.014,-0.289 -0.008,-0.287 0.009,0.001 -0.011,0.13 0.033,0.28 0.042,0.15 0.127,0.25 0.12,0.255z"/>
   <path class="fil4" d="M33.898 11.692c-0.001,0.003 -0.03,-0.007 -0.07,-0.034 -0.04,-0.027 -0.09,-0.074 -0.13,-0.137 -0.039,-0.064 -0.058,-0.129 -0.065,-0.177 -0.006,-0.048 -0.002,-0.078 0.001,-0.078 0.008,-0.001 0.011,0.12 0.087,0.241 0.075,0.122 0.182,0.178 0.177,0.185z"/>
   <path class="fil16" d="M24.913 19.703c-0.016,-0.022 -0.199,-0.383 -0.534,-0.567 -0.334,-0.184 -0.581,-0.308 -0.765,-0.422 -0.183,-0.114 -0.329,-0.177 -0.328,0.058 0.002,0.234 0.219,0.38 0.388,0.459 0.17,0.079 0.299,0.087 0.214,0.249 -0.084,0.162 -0.539,0.278 -0.772,0.312 -0.233,0.034 -0.734,0.194 -0.984,0.297 -0.251,0.103 -0.228,0.243 -0.228,0.243 0,0 -0.127,-0.02 -0.246,0.11 -0.118,0.131 0.024,0.218 0.024,0.218l0.096 0.009c0,0 -0.045,0.201 0.152,0.227 0.198,0.025 0.994,-0.069 0.994,-0.069 0,0 -0.61,0.115 -0.71,0.209 -0.1,0.095 0.014,0.194 0.1,0.188 0.085,-0.006 1.489,-0.203 1.691,-0.203 0.202,0 1.058,-0.368 1.058,-0.368l-0.15 -0.95z"/>
   <path class="fil17" d="M23.135 20.493c0.001,0.016 -0.301,0.045 -0.673,0.086 -0.372,0.041 -0.674,0.078 -0.676,0.063 -0.003,-0.014 0.296,-0.076 0.67,-0.117 0.373,-0.042 0.678,-0.046 0.679,-0.032z"/>
   <path class="fil17" d="M23.199 20.096c0.002,0.015 -0.294,0.058 -0.656,0.119 -0.363,0.06 -0.657,0.116 -0.66,0.101 -0.003,-0.014 0.286,-0.094 0.651,-0.155 0.364,-0.061 0.664,-0.08 0.665,-0.065z"/>
   <path class="fil17" d="M24.42 20.133c-0.001,0.006 -0.056,0.008 -0.135,-0.031 -0.078,-0.037 -0.172,-0.12 -0.234,-0.237 -0.063,-0.116 -0.088,-0.232 -0.102,-0.314 -0.014,-0.082 -0.017,-0.134 -0.01,-0.135 0.008,-0.002 0.024,0.047 0.047,0.127 0.024,0.079 0.055,0.188 0.113,0.296 0.058,0.108 0.138,0.187 0.205,0.23 0.067,0.043 0.118,0.055 0.116,0.064z"/>
   <path class="fil16" d="M30.763 13.351l-1.287 2.149 -1.463 2.12 -3.208 2.012 0.191 1.027c0,0 3.358,-1.079 3.742,-1.243 0.385,-0.164 2.151,-2.238 2.151,-2.238 0,0 0.12,-3.956 -0.126,-3.827z"/>
   <path class="fil7" d="M32.222 37.92l0.078 2.115c0,0 -2.056,0.792 -2.078,1.184l3.977 -0.009 0.01 -3.3 -1.987 0.01z"/>
   <path class="fil0" d="M33.53 39.854c0.077,0.022 0.13,0.111 0.113,0.191 -0.018,0.081 -0.106,0.137 -0.183,0.117 -0.077,-0.02 -0.145,-0.125 -0.118,-0.203 0.026,-0.078 0.132,-0.139 0.203,-0.1l-0.015 -0.005z"/>
   <path class="fil4" d="M34.199 41.21l-0.011 -0.332 -3.81 0.132c0,0 -0.177,0.08 -0.156,0.209l3.977 -0.009z"/>
   <path class="fil3" d="M32.236 40.014c0,0.02 0.098,0.029 0.193,0.093 0.098,0.062 0.147,0.148 0.165,0.141 0.018,-0.004 -0.011,-0.124 -0.129,-0.2 -0.116,-0.077 -0.233,-0.053 -0.229,-0.034z"/>
   <path class="fil3" d="M31.819 40.193c-0.004,0.019 0.08,0.053 0.146,0.138 0.068,0.083 0.085,0.174 0.105,0.173 0.018,0.003 0.031,-0.114 -0.053,-0.218 -0.083,-0.104 -0.198,-0.112 -0.198,-0.093z"/>
   <path class="fil3" d="M31.583 40.709c0.018,0.004 0.045,-0.096 -0.006,-0.206 -0.049,-0.11 -0.141,-0.153 -0.149,-0.136 -0.011,0.016 0.048,0.075 0.088,0.166 0.042,0.089 0.048,0.174 0.067,0.176z"/>
   <path class="fil3" d="M32.27 39.53c0.008,0.018 0.097,-0.01 0.207,-0.002 0.11,0.005 0.195,0.043 0.205,0.025 0.012,-0.014 -0.072,-0.088 -0.201,-0.095 -0.13,-0.008 -0.221,0.056 -0.211,0.072z"/>
   <path class="fil7" d="M36.817 37.933l0.215 2.551 -0.393 2.068c-0.028,0.149 0.071,0.292 0.217,0.311 0.082,0.011 0.163,-0.02 0.219,-0.082 0.355,-0.399 1.652,-1.874 1.626,-2.06 -0.03,-0.215 -0.055,-2.706 -0.055,-2.706l-1.829 -0.082z"/>
   <path class="fil4" d="M36.856 42.863l1.834 -2.314 0.007 0.108c0.005,0.094 -0.021,0.187 -0.075,0.262 -0.145,0.201 -0.558,0.747 -1.54,1.861 -0.057,0.065 -0.142,0.096 -0.226,0.083z"/>
   <path class="fil18" d="M38.131 39.758c-0.06,0.049 -0.074,0.147 -0.029,0.21 0.044,0.063 0.141,0.079 0.201,0.032 0.06,-0.048 0.08,-0.165 0.029,-0.223 -0.051,-0.057 -0.165,-0.069 -0.212,-0.009l0.011 -0.01z"/>
   <path class="fil3" d="M37.353 41.709c-0.014,0.008 -0.078,-0.122 -0.23,-0.184 -0.149,-0.067 -0.284,-0.022 -0.288,-0.038 -0.003,-0.006 0.028,-0.028 0.085,-0.04 0.057,-0.013 0.141,-0.01 0.224,0.026 0.083,0.035 0.145,0.095 0.176,0.145 0.033,0.051 0.039,0.089 0.033,0.091z"/>
   <path class="fil3" d="M37.198 42.063c-0.011,0.012 -0.096,-0.066 -0.226,-0.095 -0.13,-0.033 -0.239,-0.001 -0.244,-0.017 -0.008,-0.012 0.108,-0.074 0.256,-0.038 0.148,0.034 0.226,0.142 0.214,0.15z"/>
   <path class="fil3" d="M37.654 41.249c-0.011,0.013 -0.141,-0.108 -0.339,-0.172 -0.198,-0.067 -0.372,-0.047 -0.373,-0.064 -0.005,-0.013 0.177,-0.061 0.389,0.011 0.213,0.069 0.334,0.217 0.323,0.225z"/>
   <path class="fil3" d="M37.651 40.468c-0.006,0.015 -0.146,-0.035 -0.324,-0.029 -0.179,0.002 -0.317,0.058 -0.323,0.043 -0.008,-0.012 0.13,-0.096 0.322,-0.1 0.191,-0.005 0.332,0.073 0.325,0.086z"/>
   <path class="fil3" d="M37.606 39.717c-0.007,0.015 -0.149,-0.061 -0.337,-0.039 -0.188,0.017 -0.313,0.12 -0.323,0.106 -0.004,-0.005 0.021,-0.039 0.076,-0.076 0.054,-0.038 0.141,-0.076 0.242,-0.086 0.101,-0.01 0.193,0.009 0.254,0.035 0.061,0.026 0.092,0.054 0.088,0.06z"/>
   <path class="fil3" d="M37.265 39.535c-0.003,0 -0.011,-0.034 -0.01,-0.097 0.002,-0.062 0.014,-0.154 0.059,-0.258 0.024,-0.049 0.048,-0.112 0.115,-0.15 0.033,-0.02 0.085,-0.016 0.116,0.015 0.031,0.031 0.043,0.073 0.047,0.113 0.007,0.163 -0.118,0.328 -0.293,0.363 -0.177,0.032 -0.344,-0.062 -0.423,-0.197 -0.017,-0.035 -0.031,-0.079 -0.014,-0.123 0.016,-0.045 0.065,-0.066 0.101,-0.062 0.074,0.006 0.123,0.047 0.169,0.077 0.089,0.065 0.147,0.136 0.181,0.187 0.034,0.052 0.046,0.084 0.043,0.086 -0.008,0.007 -0.07,-0.122 -0.246,-0.24 -0.044,-0.027 -0.095,-0.062 -0.148,-0.063 -0.026,-0.001 -0.048,0.011 -0.056,0.033 -0.008,0.021 -0.001,0.053 0.014,0.08 0.067,0.111 0.22,0.197 0.369,0.167 0.148,-0.028 0.257,-0.174 0.253,-0.304 -0.002,-0.032 -0.012,-0.063 -0.03,-0.081 -0.017,-0.017 -0.041,-0.02 -0.064,-0.009 -0.047,0.023 -0.076,0.079 -0.099,0.125 -0.093,0.195 -0.073,0.339 -0.084,0.338z"/>
   <path class="fil7" d="M38.399 32.004l-0.511 -7.844 -0.208 -1.637 -7.145 1.098c0.02,0.527 1.42,16.277 1.42,16.277l2.387 0 -0.124 -13.775 0.2 0.051c0,0 1.101,5.877 1.171,6.824 0.063,0.851 0.875,6.998 0.875,6.998l2.305 -0.001 -0.37 -7.991z"/>
   <path class="fil16" d="M40.648 23.942c0.028,0.051 0.223,1.301 0.185,1.398 -0.039,0.096 -0.217,0.724 -0.309,0.859 -0.092,0.136 -0.574,0.505 -0.639,0.433 -0.066,-0.073 -0.119,-0.228 -0.021,-0.308l-0.447 -0.019c0,0 0.007,-0.213 0.162,-0.266l-0.191 -0.086c0,0 0.09,-0.201 0.228,-0.194 0.138,0.007 0.076,0.032 0.076,0.032l0.138 -0.144c0,0 0.051,-0.481 -0.001,-0.603 -0.051,-0.122 -0.221,-0.246 -0.197,-0.519 0.024,-0.273 0.198,-0.546 0.175,-0.618 -0.023,-0.071 -0.043,-0.378 -0.043,-0.378 0,0 0.705,-0.209 0.738,-0.21 0.032,-0.002 0.146,0.623 0.146,0.623z"/>
   <path class="fil17" d="M39.846 25.096c0.009,0.001 -0.006,0.137 0.03,0.35 0.019,0.105 0.051,0.233 0.109,0.359 0.03,0.061 0.082,0.117 0.15,0.124 0.067,0.009 0.126,-0.052 0.144,-0.126 0.022,-0.074 0.001,-0.151 -0.022,-0.225 -0.024,-0.073 -0.05,-0.149 -0.053,-0.225 -0.004,-0.152 0.046,-0.277 0.077,-0.38 0.034,-0.104 0.056,-0.188 0.062,-0.248 0.007,-0.06 0.005,-0.093 0.009,-0.094 0.002,0 0.011,0.033 0.01,0.096 -0.001,0.062 -0.018,0.15 -0.048,0.255 -0.028,0.105 -0.072,0.23 -0.065,0.369 0.003,0.069 0.028,0.138 0.053,0.213 0.023,0.073 0.05,0.162 0.024,0.251 -0.012,0.044 -0.034,0.085 -0.068,0.117 -0.033,0.032 -0.082,0.05 -0.128,0.044 -0.093,-0.011 -0.153,-0.084 -0.184,-0.151 -0.06,-0.136 -0.088,-0.265 -0.103,-0.374 -0.015,-0.109 -0.014,-0.199 -0.01,-0.26 0.004,-0.061 0.01,-0.095 0.013,-0.095z"/>
   <path class="fil16" d="M37.982 13.176l0.235 0c0,0 0.767,0.655 0.999,1.272 0.231,0.617 0.41,1.519 0.393,2.088 -0.017,0.569 0.266,1.493 0.352,2.293 0,0 0.631,2.087 0.529,4.245l0.063 0.534 -0.746 0.299c0,0 -0.879,-2.477 -0.972,-3.048 -0.093,-0.57 -0.158,-0.829 -0.273,-1.479 -0.114,-0.65 -0.806,-1.946 -0.78,-2.274l-0.123 -1.01c0,0 0.019,-0.745 -0.058,-1.498 -0.076,-0.753 0.277,-1.422 0.277,-1.422l0.104 0z"/>
   <path class="fil16" d="M39.829 25.044c0.001,0.214 0.034,0.466 0.092,0.672 0.016,0.057 0.034,0.115 0.069,0.163 0.035,0.049 0.088,0.087 0.148,0.09 0.089,0.004 0.166,-0.074 0.189,-0.16 0.022,-0.086 0.003,-0.177 -0.023,-0.263 -0.026,-0.085 -0.059,-0.17 -0.064,-0.259 -0.011,-0.231 0.17,-0.455 0.103,-0.676l-0.514 0.433z"/>
   <path class="fil17" d="M40.343 24.611c0.002,-0.001 0.02,0.032 0.025,0.098 0.006,0.066 -0.012,0.161 -0.046,0.27 -0.031,0.109 -0.08,0.241 -0.046,0.382 0.015,0.072 0.045,0.145 0.067,0.227 0.021,0.081 0.035,0.176 -0.004,0.268 -0.02,0.044 -0.052,0.083 -0.093,0.109 -0.04,0.027 -0.093,0.038 -0.141,0.026 -0.095,-0.023 -0.151,-0.105 -0.179,-0.177 -0.051,-0.149 -0.072,-0.283 -0.087,-0.398 -0.015,-0.114 -0.018,-0.208 -0.018,-0.272 0,-0.064 0.005,-0.1 0.008,-0.1 0.009,0 0.011,0.142 0.048,0.366 0.02,0.112 0.045,0.248 0.096,0.385 0.026,0.065 0.075,0.128 0.144,0.144 0.067,0.017 0.141,-0.034 0.172,-0.106 0.031,-0.071 0.022,-0.155 0.002,-0.232 -0.019,-0.077 -0.049,-0.152 -0.065,-0.229 -0.034,-0.16 0.025,-0.299 0.059,-0.404 0.039,-0.108 0.061,-0.196 0.062,-0.259 0.002,-0.062 -0.009,-0.097 -0.004,-0.098z"/>
   <path class="fil4" d="M37.955 18.017l2.108 -0.892c0,0 -0.586,-2.268 -0.991,-3.235 -0.406,-0.968 -0.928,-1.044 -0.928,-1.044l-2.363 -0.878c0,0 -0.756,0.705 -1.576,0.705 -0.821,0 -0.923,-0.361 -0.923,-0.361l-2.409 0.627c0,0 -0.213,0.127 -0.517,0.557 -0.305,0.429 -1.618,2.389 -1.618,2.389l1.715 1.934 0.433 -0.642 0 0 -0.12 2.585 -0.231 4.145 7.33 -0.198 -0.275 -3.717 0.21 -2.542c0.084,0.311 0.162,0.599 0.155,0.567z"/>
   <polygon class="fil9" points="30.535,33.528 38.076,33.374 37.59,22.715 37.814,22.681 37.72,21.377 37.128,20.771 36.9,15.172 31.16,15.172 30.799,20.912 30.535,23.621 "/>
   <path class="fil15" d="M31.399 15.858l0.062 -3.072c0.151,-0.137 0.394,-0.276 0.654,-0.202l-0.08 3.274 -0.636 0z"/>
   <path class="fil7" d="M31.892 15.547c0,0.093 -0.076,0.168 -0.168,0.168 -0.093,0 -0.168,-0.075 -0.168,-0.168 0,-0.093 0.075,-0.168 0.168,-0.168 0.092,0 0.168,0.075 0.168,0.168z"/>
   <path class="fil7" d="M32.048 15.142c0.006,0 0.009,0.075 0.011,0.202 0.001,0.127 0.001,0.306 -0.001,0.515l-0.001 0.022 -0.022 0c-0.1,0 -0.207,0.001 -0.318,0.001 -0.111,0 -0.218,-0.001 -0.318,-0.001l-0.023 0 0 -0.023c0.007,-0.209 0.014,-0.387 0.021,-0.514 0.007,-0.127 0.014,-0.202 0.019,-0.202 0.006,0 0.009,0.075 0.01,0.202 0.001,0.127 -0.001,0.306 -0.004,0.515l-0.023 -0.024c0.1,0 0.207,0 0.318,-0.001 0.111,0.001 0.218,0.001 0.318,0.001l-0.023 0.023c0.005,-0.208 0.012,-0.387 0.018,-0.514 0.007,-0.127 0.013,-0.202 0.018,-0.202z"/>
   <path class="fil15" d="M35.862 15.858l0.304 -3.756c0.135,-0.02 0.516,0.109 0.594,0.223l-0.262 3.533 -0.636 0z"/>
   <path class="fil7" d="M36.355 15.547c0,0.093 -0.075,0.168 -0.168,0.168 -0.093,0 -0.168,-0.075 -0.168,-0.168 0,-0.093 0.075,-0.168 0.168,-0.168 0.093,0 0.168,0.075 0.168,0.168z"/>
   <path class="fil7" d="M36.512 15.142c0.005,0 0.008,0.075 0.01,0.202 0.002,0.127 0.001,0.306 -0.001,0.515l0 0.022 -0.023 0c-0.099,0 -0.207,0.001 -0.318,0.001 -0.111,0 -0.218,-0.001 -0.318,-0.001l-0.023 0 0.001 -0.023c0.006,-0.209 0.013,-0.387 0.02,-0.514 0.007,-0.127 0.014,-0.202 0.019,-0.202 0.006,0 0.009,0.075 0.01,0.202 0.001,0.127 0,0.306 -0.004,0.515l-0.023 -0.024c0.1,0 0.207,0 0.318,-0.001 0.111,0.001 0.219,0.001 0.318,0.001l-0.023 0.023c0.006,-0.208 0.012,-0.387 0.019,-0.514 0.006,-0.127 0.012,-0.202 0.018,-0.202z"/>
   <path class="fil0" d="M32.706 21.591c0,0 -0.211,-0.474 -0.228,-0.597 -0.017,-0.123 0.052,-0.226 0.052,-0.226l0 0.001c0.066,-0.084 0.094,-0.206 0.066,-0.33 -0.046,-0.201 -0.219,-0.333 -0.388,-0.295 -0.002,0.001 -0.004,0.001 -0.006,0.002 -0.04,-0.121 -0.141,-0.216 -0.271,-0.228 -0.053,-0.004 -0.055,0.077 -0.003,0.082 0.097,0.008 0.171,0.087 0.199,0.177 -0.118,0.073 -0.18,0.234 -0.143,0.4 0.033,0.146 0.134,0.255 0.251,0.289l0 0c0.152,0.095 0.388,0.766 0.388,0.766l0.083 -0.041zm-0.656 -1.029l0 0c-0.036,-0.158 0.042,-0.31 0.175,-0.34 0.133,-0.03 0.269,0.074 0.305,0.231 0.036,0.158 -0.043,0.31 -0.176,0.34 -0.132,0.03 -0.269,-0.073 -0.304,-0.231z"/>
   <path class="fil0" d="M33.272 20.904l-0.001 0c0.12,-0.026 0.229,-0.128 0.272,-0.271 0.06,-0.197 -0.026,-0.397 -0.192,-0.447 -0.165,-0.051 -0.348,0.068 -0.408,0.265 -0.037,0.122 -0.018,0.246 0.041,0.334l0 0c0,0 0.062,0.108 0.036,0.229 -0.026,0.121 -0.271,0.579 -0.271,0.579l0.08 0.046c0,0 0.284,-0.652 0.443,-0.735zm-0.265 -0.433l0 0c0.047,-0.155 0.191,-0.249 0.321,-0.209 0.13,0.04 0.198,0.197 0.151,0.352 -0.047,0.155 -0.191,0.248 -0.321,0.208 -0.13,-0.039 -0.198,-0.197 -0.151,-0.351z"/>
   <path class="fil0" d="M32.643 23.744c0.179,0.006 0.215,-2.136 0.215,-2.136l-0.059 -0.108 -0.135 -0.005 -0.082 0.103c0,0 -0.119,2.139 0.061,2.146z"/>
   <path class="fil3" d="M32.654 21.741c0.001,-0.037 0.032,-0.066 0.069,-0.065 0.037,0.001 0.066,0.033 0.064,0.069 -0.001,0.037 -0.032,0.066 -0.069,0.065 -0.037,-0.001 -0.066,-0.032 -0.064,-0.069z"/>
   <path class="fil7" d="M34.725 20.573c-0.028,0.104 -0.103,0.349 -0.24,0.543 0,0 0.148,-0.231 0.195,-0.558 -0.028,-0.008 -0.06,-0.016 -0.096,-0.023 -0.05,0.319 -0.22,0.626 -0.22,0.626 0.119,-0.292 0.154,-0.532 0.164,-0.635 -0.047,-0.007 -0.1,-0.013 -0.159,-0.016 0.024,0.354 -0.089,0.651 -0.089,0.651 0.05,-0.307 0.044,-0.548 0.038,-0.652 -0.016,-0.001 -0.033,-0.001 -0.05,-0.001 -0.034,0 -0.065,0.001 -0.095,0.002 0.016,0.253 0.043,0.533 0.043,0.533 -0.045,-0.165 -0.075,-0.419 -0.087,-0.531 -0.04,0.003 -0.077,0.007 -0.111,0.012 0.01,0.103 0.045,0.344 0.164,0.637 0,0 -0.17,-0.309 -0.22,-0.628 -0.036,0.007 -0.068,0.014 -0.096,0.022 0.047,0.329 0.196,0.561 0.196,0.561 -0.139,-0.196 -0.215,-0.444 -0.242,-0.547 -0.096,0.034 -0.134,0.067 -0.134,0.067 0.06,0.527 0.352,0.789 0.352,0.789l0.23 0 0.23 0c0,0 0.292,-0.262 0.352,-0.789 0,0 -0.035,-0.031 -0.125,-0.063z"/>
   <path class="fil4" d="M34.018 22.211l0.248 0 0.004 0 0.248 0c0,0 0.185,-0.336 0.168,-0.544 -0.016,-0.206 -0.155,-0.268 -0.416,-0.269l0 0c-0.001,0 -0.001,0 -0.002,0 -0.001,0 -0.001,0 -0.002,0l0 0c-0.261,0.001 -0.399,0.063 -0.416,0.269 -0.017,0.208 0.168,0.544 0.168,0.544z"/>
   <path class="fil7" d="M35.615 20.174l-0.372 0.024 0.364 0.066 -0.001 0.007 -0.367 -0.036 -0.003 0.033 0.367 0.037 -0.004 0.033 -0.366 -0.036 -0.004 0.034 0.367 0.036 -0.003 0.034 -0.367 -0.037 -0.003 0.034 0.367 0.036 -0.003 0.034 -0.368 -0.036 -0.003 0.033 0.368 0.037 -0.004 0.033 -0.367 -0.036 -0.004 0.034 0.368 0.036 -0.003 0.034 -0.368 -0.037 -0.003 0.034 0.368 0.036 -0.003 0.034 -0.369 -0.036 -0.003 0.033 0.368 0.037 -0.003 0.033 -0.368 -0.036 -0.004 0.034 0.369 0.036 -0.003 0.034 -0.369 -0.037 -0.003 0.034 0.369 0.036 -0.004 0.034 -0.369 -0.036 -0.003 0.033 0.369 0.037 -0.003 0.033 -0.369 -0.036 -0.004 0.034 0.37 0.036 -0.003 0.034 -0.37 -0.037 -0.003 0.034 0.369 0.037 -0.003 0.033 -0.369 -0.036 -0.004 0.033 0.37 0.037 -0.003 0.034 -0.37 -0.037 -0.003 0.034 0.37 0.036 -0.004 0.034 -0.37 -0.037 -0.003 0.034 0.37 0.037 -0.003 0.033 -0.37 -0.036 -0.004 0.033 0.371 0.037 -0.003 0.034 -0.371 -0.037 -0.003 0.034 0.37 0.036 -0.003 0.034 -0.371 -0.037 -0.003 0.034 0.371 0.037 -0.003 0.033 -0.371 -0.036 -0.004 0.033 0.372 0.037 -0.004 0.034 -0.371 -0.037 -0.003 0.034 0.371 0.036 -0.003 0.034 -0.372 -0.037 -0.003 0.034 0.372 0.037 -0.003 0.033 -0.372 -0.036 -0.004 0.033 0.372 0.037 -0.003 0.034 -0.372 -0.037 -0.003 0.034 0.372 0.036 -0.003 0.034 -0.373 -0.037 -0.003 0.034 0.373 0.037 -0.004 0.033 -0.372 -0.036 -0.004 0.033 0.373 0.037 -0.003 0.034 -0.373 -0.037 -0.003 0.034 0.373 0.036 -0.003 0.034 -0.374 -0.037 -0.003 0.034 0.374 0.037 -0.004 0.033 -0.373 -0.036 -0.004 0.033 0.374 0.037 -0.003 0.034 -0.374 -0.037 -0.003 0.034 0.374 0.037 -0.002 0.019 -0.374 -0.037c0,0 0.356,0.216 0.345,0.328 -0.011,0.113 -0.173,1.902 -0.083,1.911 0,0 0,0 0,0 0,0 0,0 0,0 0,0 0.053,0.005 0.166,-1.139 0.113,-1.145 0.288,-2.918 0.288,-2.918 0,0 0.04,-0.177 -0.149,-0.181z"/>
   <path class="fil8" d="M32.335 24.909c0.414,0.323 1.257,0.492 1.904,0.475 0.648,-0.016 1.316,-0.243 1.735,-0.737 -1.169,0.354 -2.418,0.304 -3.639,0.262z"/>
   <path class="fil15" d="M35.003 25.105l-2.095 0c-0.654,0 -1.184,-0.53 -1.184,-1.184l0 -2.294 4.463 0 0 2.294c0,0.654 -0.53,1.184 -1.184,1.184z"/>
   <path class="fil11" d="M35.003 25.105c-0.001,-0.006 0.107,0.003 0.297,-0.046 0.094,-0.024 0.208,-0.068 0.327,-0.145 0.118,-0.075 0.242,-0.185 0.344,-0.334 0.1,-0.15 0.177,-0.34 0.195,-0.556 0.01,-0.217 0.001,-0.456 0.003,-0.707 -0.001,-0.506 -0.002,-1.074 -0.004,-1.69l0.022 0.021c-0.978,0.001 -2.096,0.002 -3.279,0.003 -0.406,0 -0.804,-0.001 -1.184,-0.001l0.023 -0.023c0,0.443 0,0.873 -0.001,1.286 0,0.207 0,0.409 0,0.607 -0.001,0.099 -0.001,0.197 -0.001,0.293 0,0.097 -0.002,0.191 0.014,0.282 0.051,0.369 0.287,0.674 0.568,0.835 0.141,0.083 0.294,0.131 0.444,0.149 0.149,0.015 0.298,0.007 0.437,0.01 0.558,0.003 1.006,0.006 1.317,0.007 0.153,0.002 0.271,0.003 0.355,0.004 0.038,0.001 0.069,0.002 0.092,0.003 0.02,0 0.031,0.001 0.031,0.002 0,0.001 -0.011,0.001 -0.031,0.002 -0.023,0.001 -0.054,0.001 -0.092,0.002 -0.084,0.001 -0.202,0.003 -0.355,0.004 -0.311,0.002 -0.759,0.004 -1.317,0.007 -0.14,-0.001 -0.285,0.008 -0.441,-0.007 -0.154,-0.017 -0.313,-0.066 -0.458,-0.151 -0.292,-0.165 -0.537,-0.478 -0.591,-0.861 -0.017,-0.094 -0.015,-0.192 -0.016,-0.288 0,-0.096 0,-0.194 0,-0.293 0,-0.198 -0.001,-0.4 -0.001,-0.607 0,-0.413 -0.001,-0.843 -0.001,-1.286l0 -0.024 0.024 0c0.38,0 0.778,0 1.184,0 1.183,0 2.301,0.001 3.279,0.002l0.021 0 0 0.022c-0.001,0.616 -0.002,1.184 -0.003,1.69 -0.003,0.253 0.004,0.488 -0.008,0.709 -0.021,0.222 -0.101,0.417 -0.205,0.569 -0.106,0.151 -0.233,0.261 -0.355,0.336 -0.122,0.076 -0.238,0.119 -0.334,0.141 -0.048,0.013 -0.091,0.02 -0.128,0.024 -0.037,0.006 -0.069,0.009 -0.095,0.008 -0.024,0.001 -0.043,0.001 -0.058,0.002 -0.013,0 -0.019,-0.001 -0.019,-0.001z"/>
   <path class="fil3" d="M34.712 16.638l-1.504 0c-0.097,0 -0.175,-0.078 -0.175,-0.174l0 -0.049c0,-0.096 0.078,-0.174 0.175,-0.174l1.504 0c0.096,0 0.175,0.078 0.175,0.174l0 0.049c0,0.096 -0.079,0.174 -0.175,0.174z"/>
   <path class="fil7" d="M30.561 14.654c0.003,-0.001 0.01,0.038 0.019,0.108 0.009,0.08 0.02,0.179 0.034,0.297 0.03,0.261 0.069,0.602 0.112,0.978 0.048,0.377 0.092,0.717 0.126,0.977 0.015,0.118 0.027,0.217 0.037,0.297 0.009,0.07 0.012,0.109 0.009,0.109 -0.004,0.001 -0.013,-0.037 -0.027,-0.106 -0.014,-0.07 -0.032,-0.17 -0.053,-0.295 -0.042,-0.248 -0.093,-0.593 -0.14,-0.976 -0.046,-0.382 -0.079,-0.73 -0.098,-0.981 -0.01,-0.126 -0.016,-0.228 -0.019,-0.299 -0.003,-0.07 -0.003,-0.109 0,-0.109z"/>
   <path class="fil7" d="M38.017 14.91c0.013,0.001 -0.022,0.631 -0.079,1.407 -0.057,0.777 -0.114,1.405 -0.127,1.404 -0.014,-0.001 0.022,-0.631 0.079,-1.407 0.057,-0.776 0.114,-1.405 0.127,-1.404z"/>
   <path class="fil7" d="M35.029 26.449c0.012,0.005 -0.552,1.244 -1.26,2.765 -0.708,1.523 -1.291,2.752 -1.303,2.746 -0.012,-0.005 0.552,-1.244 1.26,-2.766 0.707,-1.522 1.291,-2.751 1.303,-2.745z"/>
   <path class="fil7" d="M34.821 28.33c0.003,0.001 -0.003,0.051 -0.017,0.142 -0.015,0.09 -0.035,0.221 -0.057,0.383 -0.045,0.324 -0.093,0.774 -0.111,1.273 -0.018,0.499 -0.003,0.951 0.019,1.278 0.01,0.163 0.021,0.295 0.029,0.387 0.007,0.091 0.01,0.141 0.006,0.142 -0.003,0 -0.012,-0.05 -0.025,-0.14 -0.014,-0.091 -0.029,-0.223 -0.044,-0.387 -0.03,-0.326 -0.051,-0.781 -0.033,-1.282 0.018,-0.501 0.072,-0.952 0.125,-1.276 0.027,-0.162 0.052,-0.292 0.072,-0.382 0.02,-0.089 0.032,-0.139 0.036,-0.138z"/>
  </g>
 </g>
</svg>
