<?xml version="1.0" encoding="UTF-8"?>
<!DOCTYPE svg PUBLIC "-//W3C//DTD SVG 1.1//EN" "http://www.w3.org/Graphics/SVG/1.1/DTD/svg11.dtd">
<!-- Creator: CorelDRAW 2021 (64 Bit) -->
<svg xmlns="http://www.w3.org/2000/svg" xml:space="preserve" width="293px" height="266px" version="1.1" style="shape-rendering:geometricPrecision; text-rendering:geometricPrecision; image-rendering:optimizeQuality; fill-rule:evenodd; clip-rule:evenodd"
viewBox="0 0 179.011 162.454"
 xmlns:xlink="http://www.w3.org/1999/xlink"
 xmlns:xodm="http://www.corel.com/coreldraw/odm/2003">
 <defs>
  <style type="text/css">
   <![CDATA[
    .str0 {stroke:#FF7101;stroke-width:0.176;stroke-miterlimit:22.9256}
    .fil12 {fill:none;fill-rule:nonzero}
    .fil21 {fill:black;fill-rule:nonzero}
    .fil7 {fill:#263138;fill-rule:nonzero}
    .fil15 {fill:#3F7BFF;fill-rule:nonzero}
    .fil23 {fill:#A14D3F;fill-rule:nonzero}
    .fil9 {fill:#B24F00;fill-rule:nonzero}
    .fil18 {fill:#CD7962;fill-rule:nonzero}
    .fil1 {fill:#DFDFDF;fill-rule:nonzero}
    .fil4 {fill:#E6E6E6;fill-rule:nonzero}
    .fil2 {fill:#EBEBEB;fill-rule:nonzero}
    .fil3 {fill:#EFEFEF;fill-rule:nonzero}
    .fil0 {fill:#F4F4F4;fill-rule:nonzero}
    .fil5 {fill:#FF7101;fill-rule:nonzero}
    .fil14 {fill:white;fill-rule:nonzero}
    .fil8 {fill:black;fill-rule:nonzero;fill-opacity:0.200000}
    .fil26 {fill:#263138;fill-rule:nonzero;fill-opacity:0.200000}
    .fil13 {fill:#FF7101;fill-rule:nonzero;fill-opacity:0.200000}
    .fil11 {fill:white;fill-rule:nonzero;fill-opacity:0.200000}
    .fil16 {fill:black;fill-rule:nonzero;fill-opacity:0.301961}
    .fil24 {fill:#B24F00;fill-rule:nonzero;fill-opacity:0.301961}
    .fil20 {fill:white;fill-rule:nonzero;fill-opacity:0.301961}
    .fil19 {fill:#263138;fill-rule:nonzero;fill-opacity:0.400000}
    .fil17 {fill:white;fill-rule:nonzero;fill-opacity:0.501961}
    .fil25 {fill:#263138;fill-rule:nonzero;fill-opacity:0.600000}
    .fil22 {fill:white;fill-rule:nonzero;fill-opacity:0.600000}
    .fil10 {fill:white;fill-rule:nonzero;fill-opacity:0.800000}
    .fil6 {fill:white;fill-rule:nonzero;fill-opacity:0.901961}
   ]]>
  </style>
 </defs>
 <g id="Camada_x0020_1">
  <metadata id="CorelCorpID_0Corel-Layer"/>
  <g id="_2711585685088">
   <polygon class="fil0" points="48.967,118.17 36.235,118.17 36.235,112.883 48.967,112.883 "/>
   <polygon class="fil0" points="142.925,118.17 130.193,118.17 130.193,112.883 142.925,112.883 "/>
   <path class="fil1" d="M25.017 144.664c-0.005,-0.159 -0.538,-15.89 -3.097,-18.378 -2.488,-2.419 -5.345,-0.09 -5.465,0.01l-0.256 -0.307c0.032,-0.028 3.255,-2.659 6.001,0.01 2.673,2.6 3.196,17.998 3.217,18.652l-0.4 0.013z"/>
   <path class="fil1" d="M25.237 147.755c-0.019,-0.188 -1.749,-18.885 5.079,-26.722l0.302 0.263c-6.715,7.707 -5.001,26.234 -4.983,26.42l-0.398 0.039z"/>
   <path class="fil1" d="M24.984 145.777l-0.399 -0.026c0.014,-0.212 1.336,-21.256 -3.673,-25.863l0.271 -0.295c5.149,4.736 3.859,25.311 3.801,26.184z"/>
   <path class="fil1" d="M25.636 145.766l-0.4 -0.003c0.005,-0.58 0.165,-14.215 4.038,-16.434 0.861,-0.494 1.704,-0.576 2.506,-0.245 2.342,0.969 3.502,5.137 3.551,5.314l-0.387 0.105c-0.011,-0.041 -1.157,-4.155 -3.318,-5.049 -0.681,-0.281 -1.405,-0.207 -2.153,0.222 -3.675,2.106 -3.836,15.95 -3.837,16.09z"/>
   <path class="fil1" d="M24.128 145.776l-0.4 -0.023c0.006,-0.108 0.585,-10.775 -2.294,-14.533 -0.698,-0.911 -1.455,-1.345 -2.255,-1.289 -1.886,0.132 -3.468,2.892 -3.484,2.92l-0.348 -0.197c0.068,-0.122 1.702,-2.975 3.804,-3.122 0.939,-0.067 1.816,0.42 2.601,1.444 2.969,3.876 2.402,14.356 2.376,14.8z"/>
   <path class="fil1" d="M24.759 147.226c-0.078,-1.034 -1.882,-25.391 1.292,-29.683l0.321 0.238c-3.085,4.173 -1.232,29.163 -1.213,29.415l-0.4 0.03z"/>
   <path class="fil2" d="M32.643 131.553c0,0 -1.904,0.701 -1.338,2.358 0.566,1.657 6.586,4.384 6.586,4.384 0,0 2.521,-2.311 0.206,-6.069 -2.315,-3.758 -5.402,-1.859 -5.454,-0.673z"/>
   <path class="fil2" d="M24.367 128.399c0,0 2.027,-0.085 2.143,1.662 0.115,1.747 -4.392,6.58 -4.392,6.58 0,0 -3.216,-1.162 -2.526,-5.522 0.691,-4.36 4.271,-3.795 4.775,-2.72z"/>
   <path class="fil2" d="M22.651 120.035c0,0 1.351,-0.145 1.243,-0.968 -0.109,-0.823 -5.254,-2.942 -8.29,0.484 0,0 1.944,3.339 4.753,3.383 2.81,0.044 2.294,-2.899 2.294,-2.899z"/>
   <path class="fil2" d="M25.169 118.036c0,0 -1.223,0.592 -1.567,-0.164 -0.343,-0.756 2.903,-5.276 7.292,-3.974 0,0 0.116,3.862 -2.245,5.385 -2.362,1.523 -3.48,-1.247 -3.48,-1.247z"/>
   <path class="fil2" d="M18.77 130.887c0,0 0.933,-0.753 -0.074,-1.121 -1.006,-0.368 -5.946,-0.263 -5.997,4.63 0,0 5.753,0.955 6.465,-0.908 0.712,-1.864 -0.394,-2.601 -0.394,-2.601z"/>
   <path class="fil2" d="M30.501 119.913c0,0 -0.932,-0.753 0.074,-1.121 1.007,-0.368 5.946,-0.263 5.998,4.63 0,0 -5.753,0.956 -6.465,-0.908 -0.712,-1.864 0.393,-2.601 0.393,-2.601z"/>
   <path class="fil2" d="M27.46 123.854c0,0 -0.082,-0.915 0.657,-0.556 0.739,0.358 3.314,3.136 0.645,5.772 0,0 -3.593,-2.661 -2.945,-4.046 0.647,-1.386 1.643,-1.17 1.643,-1.17z"/>
   <path class="fil2" d="M17.936 125.159c0,0 0.558,-0.731 -0.259,-0.821 -0.816,-0.091 -4.476,0.886 -3.624,4.539 0,0 4.459,-0.335 4.65,-1.852 0.191,-1.518 -0.767,-1.866 -0.767,-1.866z"/>
   <polygon class="fil3" points="33.387,159.327 18.09,159.327 16.439,142.578 35.038,142.578 "/>
   <polygon class="fil4" points="35.466,144.426 15.234,144.426 15.234,140.73 35.466,140.73 "/>
   <polygon class="fil1" points="141.121,90.737 37.586,90.737 37.586,87.503 141.121,87.503 "/>
   <polygon class="fil1" points="135.574,105.612 43.134,105.612 43.134,90.674 135.574,90.674 "/>
   <polygon class="fil1" points="47.224,160.039 43.278,160.039 43.278,105.612 47.224,105.612 "/>
   <polygon class="fil1" points="59.896,160.039 55.949,160.039 55.949,105.612 59.896,105.612 "/>
   <polygon class="fil1" points="134.69,160.039 130.743,160.039 130.743,105.612 134.69,105.612 "/>
   <polygon class="fil1" points="124.355,160.039 120.408,160.039 120.408,105.612 124.355,105.612 "/>
   <polygon class="fil1" points="132.717,130.266 45.991,130.266 45.991,127.722 132.717,127.722 "/>
   <polygon class="fil2" points="133.668,103.506 55.949,103.506 55.949,90.973 133.668,90.973 "/>
   <polygon class="fil2" points="132.303,87.503 122.934,87.503 122.934,82.555 132.303,82.555 "/>
   <polygon class="fil4" points="120.528,87.503 115.15,87.503 115.15,79.211 120.528,79.211 "/>
   <polygon class="fil4" points="118.726,79.331 116.952,79.331 116.952,77.636 118.726,77.636 "/>
   <polygon class="fil4" points="60.079,87.503 54.701,87.503 54.701,79.211 60.079,79.211 "/>
   <polygon class="fil4" points="58.277,79.331 56.503,79.331 56.503,77.636 58.277,77.636 "/>
   <polygon class="fil4" points="51.975,87.503 48.289,87.503 48.289,81.819 51.975,81.819 "/>
   <polygon class="fil4" points="50.74,81.901 49.524,81.901 49.524,80.739 50.74,80.739 "/>
   <path class="fil1" d="M158.934 106.078l-64.712 0c-1.157,0 -2.098,-0.942 -2.098,-2.099l0 -94.258c0,-1.157 0.941,-2.098 2.098,-2.098l64.712 0c1.157,0 2.098,0.941 2.098,2.098l0 94.258c0,1.157 -0.941,2.099 -2.098,2.099zm-64.712 -98.366l0 0c-1.108,0 -2.009,0.902 -2.009,2.009l0 94.258c0,1.108 0.901,2.009 2.009,2.009l64.712 0c1.107,0 2.009,-0.901 2.009,-2.009l0 -94.258c0,-1.107 -0.902,-2.009 -2.009,-2.009l-64.712 0z"/>
   <path class="fil1" d="M84.312 106.078l-64.712 0c-1.157,0 -2.098,-0.942 -2.098,-2.099l0 -94.258c0,-1.157 0.941,-2.098 2.098,-2.098l64.712 0c1.157,0 2.099,0.941 2.099,2.098l0 94.258c0,1.157 -0.942,2.099 -2.099,2.099zm-64.712 -98.366l0 0c-1.107,0 -2.009,0.902 -2.009,2.009l0 94.258c0,1.108 0.902,2.009 2.009,2.009l64.712 0c1.108,0 2.009,-0.901 2.009,-2.009l0 -94.258c0,-1.107 -0.901,-2.009 -2.009,-2.009l-64.712 0z"/>
   <polygon class="fil1" points="179.011,128.032 0,128.032 0,127.942 179.011,127.942 "/>
   <polygon class="fil1" points="18.5,133.049 24.25,133.049 24.25,133.139 18.5,133.139 "/>
   <polygon class="fil1" points="60.99,132.079 80.155,132.079 80.155,132.168 60.99,132.168 "/>
   <polygon class="fil1" points="24.608,136.375 37.586,136.375 37.586,136.465 24.608,136.465 "/>
   <polygon class="fil1" points="135.459,132.033 150.922,132.033 150.922,132.122 135.459,132.122 "/>
   <polygon class="fil1" points="154.112,132.033 156.378,132.033 156.378,132.122 154.112,132.122 "/>
   <polygon class="fil1" points="113.211,134.263 132.505,134.263 132.505,134.353 113.211,134.353 "/>
   <polygon class="fil4" points="161.762,20.103 149.03,20.103 149.03,14.816 161.762,14.816 "/>
   <polygon class="fil0" points="168.128,25.39 155.396,25.39 155.396,20.103 168.128,20.103 "/>
   <polygon class="fil4" points="87.91,30.088 75.179,30.088 75.179,24.801 87.91,24.801 "/>
   <polygon class="fil0" points="94.276,35.375 81.544,35.375 81.544,30.088 94.276,30.088 "/>
   <polygon class="fil4" points="164.215,82.555 151.483,82.555 151.483,77.269 164.215,77.269 "/>
   <polygon class="fil0" points="170.581,87.842 157.849,87.842 157.849,82.555 170.581,82.555 "/>
   <polygon class="fil4" points="28.956,78.483 16.224,78.483 16.224,73.197 28.956,73.197 "/>
   <polygon class="fil0" points="35.321,83.77 22.59,83.77 22.59,78.483 35.321,78.483 "/>
   <polygon class="fil0" points="149.151,53.77 138.279,53.77 138.279,49.256 149.151,49.256 "/>
   <polygon class="fil0" points="61.626,4.515 50.753,4.515 50.753,0 61.626,0 "/>
   <path class="fil5" d="M147.428 99.052c-1.655,-4.514 -5.025,-8.816 -10.225,-12.567 -6.129,-4.422 -15.607,-8.848 -27.788,-7.112 -22.488,3.206 -22.547,15.496 -37.787,13.479 -17.263,-2.284 -37.366,0.156 -42.614,12.776 -9.968,23.972 53.144,50.795 87.143,41.779 21.166,-5.613 40.055,-24.389 31.271,-48.355z"/>
   <path class="fil6" d="M147.428 99.052c-1.655,-4.514 -5.025,-8.816 -10.225,-12.567 -6.129,-4.422 -15.607,-8.848 -27.788,-7.112 -22.488,3.206 -22.547,15.496 -37.787,13.479 -17.263,-2.284 -37.366,0.156 -42.614,12.776 -9.968,23.972 53.144,50.795 87.143,41.779 21.166,-5.613 40.055,-24.389 31.271,-48.355z"/>
   <path class="fil0" d="M164.288 160.258c0,1.213 -33.482,2.196 -74.782,2.196 -41.301,0 -74.782,-0.983 -74.782,-2.196 0,-1.212 33.481,-2.195 74.782,-2.195 41.3,0 74.782,0.983 74.782,2.195z"/>
   <path class="fil5" d="M154.757 102.39c-6.025,7.049 -7.785,17.482 -4.405,26.116 3.756,-3.352 6.401,-8.461 6.568,-12.93 0.167,-4.468 -1.002,-8.867 -2.163,-13.186z"/>
   <path class="fil5" d="M153.706 129.321c-2.044,3.133 -3.023,6.947 -2.739,10.678 3.258,-1.135 6.129,-4.814 7.851,-7.803 1.721,-2.988 2.684,-6.345 3.56,-9.681 -3.529,1.242 -6.627,3.673 -8.672,6.806z"/>
   <path class="fil7" d="M152.945 114.696c-2.424,8.713 -3.658,17.751 -3.647,26.795 0.003,2.556 0.108,5.11 0.307,7.659 0.013,0.171 0.282,0.172 0.269,0 -0.705,-8.993 -0.184,-18.074 1.558,-26.925 0.494,-2.508 1.087,-4.995 1.772,-7.457 0.046,-0.167 -0.213,-0.238 -0.259,-0.072z"/>
   <path class="fil7" d="M149.693 142.948c2.473,-5.886 5.724,-11.399 9.481,-16.554 0.102,-0.14 -0.131,-0.274 -0.232,-0.135 -3.772,5.175 -7.025,10.709 -9.508,16.618 -0.067,0.159 0.193,0.229 0.259,0.071z"/>
   <path class="fil5" d="M146.176 134.202c1.705,2.612 2.521,5.793 2.284,8.904 -2.716,-0.946 -5.11,-4.014 -6.546,-6.506 -1.436,-2.492 -2.238,-5.291 -2.968,-8.073 2.942,1.035 5.525,3.063 7.23,5.675z"/>
   <path class="fil7" d="M149.62 145.164c-2.03,-4.827 -4.71,-9.301 -7.79,-13.527 -0.101,-0.138 -0.334,-0.004 -0.232,0.136 3.065,4.205 5.743,8.659 7.763,13.463 0.066,0.156 0.326,0.087 0.259,-0.072z"/>
   <path class="fil7" d="M149.712 146.777c3.833,-3.943 7.747,-7.807 11.579,-11.75 0.121,-0.124 -0.069,-0.314 -0.189,-0.19 -3.833,3.943 -7.747,7.807 -11.58,11.75 -0.12,0.124 0.069,0.314 0.19,0.19z"/>
   <path class="fil5" d="M161.429 133.207c-3.326,3.207 -6.356,6.721 -9.039,10.482l0.609 0c2.531,-0.119 4.988,-1.367 6.576,-3.342 1.588,-1.974 2.28,-4.642 1.854,-7.14z"/>
   <path class="fil7" d="M145.678 125.564c1.428,2.335 2.773,4.72 4.034,7.15 0.079,0.153 0.311,0.017 0.231,-0.136 -1.26,-2.43 -2.605,-4.814 -4.033,-7.149 -0.09,-0.147 -0.322,-0.013 -0.232,0.135z"/>
   <path class="fil5" d="M142.244 113.77c-0.545,2.449 -1.085,5.634 -1.091,8.185 -0.005,2.55 0.773,5.039 2.223,6.748 1.449,1.709 4.374,2.457 5.554,1.479l-6.686 -16.412z"/>
   <polygon class="fil7" points="156.971,150.601 142.169,150.601 142.169,147.908 156.971,147.908 "/>
   <polygon class="fil7" points="154.343,160.192 145.323,160.192 143.684,149.984 155.638,149.984 "/>
   <polygon class="fil8" points="143.79,150.651 155.553,150.651 155.407,151.806 143.976,151.806 "/>
   <polygon class="fil5" points="141.121,24.746 141.425,24.746 141.425,26.807 141.121,26.807 "/>
   <polygon class="fil5" points="141.121,17.925 141.425,17.925 141.425,23.124 141.121,23.124 "/>
   <polygon class="fil5" points="99.91,8.358 140.362,8.358 140.362,74.715 99.91,74.715 "/>
   <polygon class="fil9" points="99.91,74.715 99.44,74.715 99.44,8.358 99.91,8.358 "/>
   <polygon class="fil8" points="99.91,74.715 99.44,74.715 99.44,8.358 99.91,8.358 "/>
   <polygon class="fil10" points="140.169,8.689 140.169,74.379 100.106,74.379 100.106,8.689 "/>
   <polygon class="fil11" points="120.608,74.379 112.137,74.379 118.776,8.689 127.251,8.689 "/>
   <polygon class="fil11" points="127.126,74.379 123.553,74.379 130.195,8.689 133.768,8.689 "/>
   <path class="fil12" d="M113.311 61.869c0.012,0.992 0.031,1.974 0.056,2.944l0.748 -0.319 -0.759 -5.01 -0.045 2.385z"/>
   <polygon class="fil5" points="43.112,9.012 83.564,9.012 83.564,74.715 43.112,74.715 "/>
   <polygon class="fil9" points="43.112,74.715 42.642,74.715 42.642,9.012 43.112,9.012 "/>
   <polygon class="fil8" points="43.112,74.715 42.642,74.715 42.642,9.012 43.112,9.012 "/>
   <polygon class="fil10" points="83.371,9.339 83.371,74.382 43.308,74.382 43.308,9.339 "/>
   <polygon class="fil13" points="63.81,74.382 55.339,74.382 61.978,9.339 70.453,9.339 "/>
   <polygon class="fil11" points="70.328,74.382 66.755,74.382 73.397,9.339 76.97,9.339 "/>
   <path class="fil5" d="M71.113 16.574c3.265,-2.527 7.96,-1.928 10.487,1.337 1.95,2.521 2.03,5.89 0.467,8.46l0.653 2.148 -2.364 -0.202c-0.032,0.026 -0.061,0.055 -0.094,0.081 -3.265,2.526 -7.96,1.928 -10.487,-1.337 -2.526,-3.266 -1.927,-7.961 1.338,-10.487z"/>
   <path class="fil5" d="M67.265 22.496c-0.047,0 -0.086,-0.037 -0.089,-0.085 -0.128,-2.448 1.077,-4.95 3.071,-6.375 0.04,-0.029 0.096,-0.02 0.125,0.021 0.028,0.04 0.019,0.096 -0.021,0.125 -1.945,1.39 -3.121,3.832 -2.996,6.219 0.002,0.05 -0.036,0.092 -0.085,0.095 -0.001,0 -0.003,0 -0.005,0z"/>
   <path class="fil5 str0" d="M67.566 24.692c-0.035,0 -0.069,-0.021 -0.083,-0.055 -0.145,-0.352 -0.218,-0.74 -0.209,-1.122 0.001,-0.049 0.039,-0.09 0.091,-0.087 0.05,0.001 0.089,0.042 0.088,0.091 -0.008,0.357 0.06,0.72 0.195,1.05 0.019,0.045 -0.002,0.097 -0.048,0.116 -0.011,0.005 -0.023,0.007 -0.034,0.007z"/>
   <path class="fil14" d="M75.711 25.869c-0.255,0 -0.468,-0.082 -0.639,-0.247 -0.171,-0.165 -0.257,-0.366 -0.257,-0.602 0,-0.237 0.084,-0.435 0.252,-0.593 0.168,-0.159 0.383,-0.239 0.644,-0.239 0.262,0 0.477,0.08 0.645,0.239 0.168,0.158 0.252,0.356 0.252,0.593 0,0.236 -0.085,0.437 -0.257,0.602 -0.171,0.165 -0.384,0.247 -0.64,0.247zm0.579 -2.344l0 0 -1.158 0 -0.289 -4.267 1.737 0 -0.29 4.267z"/>
   <polygon class="fil15" points="31.33,47.493 17.886,47.493 17.886,15.153 31.33,15.153 "/>
   <polygon class="fil10" points="31.33,47.493 17.886,47.493 17.886,15.153 31.33,15.153 "/>
   <polygon class="fil7" points="23.874,9.45 17.886,14.731 17.886,23.839 31.16,12.977 "/>
   <polygon class="fil5" points="32.971,16.33 16.245,16.33 16.245,13.977 32.971,13.977 "/>
   <path class="fil5 str0" d="M31.33 15.153l-13.377 0 0 -1.207c0,-3.694 2.994,-6.688 6.688,-6.688 3.694,0 6.689,2.994 6.689,6.688l0 1.207z"/>
   <polygon class="fil5" points="31.33,19.113 17.886,30.97 17.886,40.078 31.33,28.736 "/>
   <polygon class="fil7" points="17.886,47.467 17.975,49.139 26.182,49.575 31.33,45.233 31.33,35.61 "/>
   <polygon class="fil5" points="16.245,46.853 32.971,46.853 32.971,49.205 16.245,49.205 "/>
   <path class="fil5" d="M17.886 48.029l13.377 0 0 1.207c0,3.694 -2.995,6.689 -6.689,6.689 -3.694,0 -6.688,-2.995 -6.688,-6.689l0 -1.207z"/>
   <path class="fil16" d="M17.886 49.236l13.444 0c0,0 -4.377,0.607 -6.577,0.61 -3.533,0.004 -6.867,-0.61 -6.867,-0.61z"/>
   <path class="fil16" d="M31.33 13.977l-13.444 0c0,0 4.377,-0.606 6.576,-0.609 3.533,-0.004 6.868,0.609 6.868,0.609z"/>
   <polygon class="fil17" points="21.872,46.853 19.615,46.853 19.615,16.33 21.872,16.33 "/>
   <path class="fil18" d="M73.836 67.938l3.178 -10.24 5.79 1.022c0,0 -2.895,11.399 -4.2,12.482 -1.306,1.083 -4.768,-3.264 -4.768,-3.264z"/>
   <polygon class="fil18" points="78.475,146.301 75.026,155.971 71.9,154.922 72.978,144.715 "/>
   <path class="fil7" d="M75.363 160.039l-2.834 -0.022c0,0 -0.571,-0.321 -0.908,-0.281 -0.336,0.04 -1.504,0.262 -1.504,0.262l-7.527 -0.059c0.062,-0.327 0.138,-0.619 0.225,-0.877 0.106,-0.315 0.227,-0.581 0.362,-0.806 0.472,-0.787 1.11,-1.063 1.803,-1.103 1.054,-0.061 4.387,-2.334 4.387,-2.334 0,0 1.207,-0.428 1.282,-1.758 0.028,-0.499 0.741,-1.102 1.079,-1.15 0.689,-0.097 1.069,0.359 1.164,1.074l0.109 0.831 1.592 -0.244c0,0 1.624,-0.833 1.539,-0.013 -0.048,0.469 -0.335,2.555 -0.518,4.21 -0.042,0.385 -0.082,0.75 -0.117,1.071l-0.001 0c-0.078,0.711 -0.133,1.199 -0.133,1.199z"/>
   <path class="fil19" d="M75.363 160.039l-2.834 -0.022c0,0 -0.571,-0.321 -0.908,-0.281 -0.336,0.04 -1.504,0.262 -1.504,0.262l-7.527 -0.059c0.062,-0.327 0.138,-0.619 0.225,-0.877 0.106,-0.315 0.227,-0.581 0.362,-0.806 0.472,-0.787 1.11,-1.063 1.803,-1.103 1.054,-0.061 4.387,-2.334 4.387,-2.334 0,0 1.207,-0.428 1.282,-1.758 0.028,-0.499 0.741,-1.102 1.079,-1.15 0.689,-0.097 1.069,0.359 1.164,1.074l0.109 0.831 1.592 -0.244c0,0 1.624,-0.833 1.539,-0.013 -0.048,0.469 -0.335,2.555 -0.518,4.21 -0.042,0.385 -0.082,0.75 -0.117,1.071l-0.001 0c-0.078,0.711 -0.133,1.199 -0.133,1.199z"/>
   <path class="fil20" d="M62.59 159.939l7.526 0.059c0,0 1.169,-0.222 1.505,-0.262 0.337,-0.04 0.908,0.281 0.908,0.281l2.834 0.022c0,0 0.055,-0.488 0.133,-1.199l-12.681 0.222c-0.087,0.258 -0.163,0.55 -0.225,0.877z"/>
   <path class="fil14" d="M67.488 155.831c0.046,-0.046 0.116,-0.05 0.169,-0.013 0.241,0.169 0.443,0.406 0.579,0.704 0.072,0.156 -0.149,0.305 -0.221,0.147 -0.121,-0.264 -0.298,-0.474 -0.509,-0.622 -0.07,-0.05 -0.081,-0.153 -0.02,-0.214 0.001,-0.001 0.002,-0.001 0.002,-0.002z"/>
   <path class="fil14" d="M68.27 155.361c0.045,-0.046 0.116,-0.05 0.168,-0.013 0.241,0.169 0.443,0.407 0.58,0.704 0.071,0.156 -0.149,0.305 -0.222,0.147 -0.121,-0.264 -0.297,-0.474 -0.508,-0.622 -0.071,-0.05 -0.081,-0.153 -0.02,-0.214 0,-0.001 0.001,-0.001 0.002,-0.002z"/>
   <path class="fil14" d="M69.076 154.923c0.045,-0.046 0.115,-0.051 0.168,-0.014 0.241,0.169 0.443,0.407 0.579,0.704 0.072,0.157 -0.148,0.306 -0.221,0.148 -0.121,-0.264 -0.297,-0.475 -0.508,-0.623 -0.071,-0.049 -0.081,-0.152 -0.02,-0.213 0,-0.001 0.001,-0.002 0.002,-0.002z"/>
   <path class="fil7" d="M109.214 75.167c1.129,-0.791 2.573,-0.768 3.894,-0.708 0.739,0.033 1.493,0.104 2.205,0.318 0.625,0.189 1.41,0.657 1.308,1.425 -0.092,0.695 -0.935,0.979 -1.523,1.093 -0.733,0.142 -1.494,0.067 -2.21,-0.128 -1.405,-0.384 -2.616,-1.242 -3.786,-2.077 -0.282,-0.201 -0.55,0.265 -0.271,0.464 2.006,1.432 4.791,3.218 7.322,1.958 1.026,-0.511 1.344,-1.685 0.531,-2.558 -0.846,-0.908 -2.425,-0.981 -3.576,-1.032 -1.411,-0.064 -2.961,-0.062 -4.165,0.781 -0.281,0.197 -0.012,0.663 0.271,0.464z"/>
   <path class="fil7" d="M109.044 74.336c-0.069,-1.176 0.507,-2.225 1.125,-3.184 0.584,-0.906 1.27,-1.986 2.227,-2.539 0.435,-0.252 1.056,-0.362 1.465,0.007 0.389,0.353 0.344,0.973 0.225,1.435 -0.257,0.99 -0.913,1.826 -1.689,2.472 -1.003,0.833 -2.232,1.352 -3.424,1.85 -0.314,0.131 -0.176,0.651 0.143,0.518 2.237,-0.934 4.965,-2.202 5.522,-4.84 0.111,-0.525 0.107,-1.123 -0.203,-1.584 -0.311,-0.463 -0.876,-0.667 -1.419,-0.617 -1.268,0.118 -2.191,1.403 -2.863,2.359 -0.846,1.203 -1.736,2.591 -1.646,4.123 0.02,0.344 0.557,0.346 0.537,0z"/>
   <polygon class="fil18" points="100.658,144.579 102.092,155.102 105.522,155.275 106.632,145.13 "/>
   <path class="fil7" d="M108.442 159.988l-7.671 0c0,0 -0.168,-0.322 0.024,-1.18 0.029,-0.134 0.067,-0.281 0.116,-0.441 0.003,-0.008 0.005,-0.016 0.007,-0.024 0.072,-0.237 0.154,-0.529 0.242,-0.844 0.351,-1.285 0.765,-2.963 0.765,-2.963 0,0 1.276,-2.732 2.769,-2.05 1.31,0.599 0.999,2.311 0.999,2.311 0,0 0.129,1.006 1.122,1.893 0.614,0.547 1.225,0.972 1.519,1.653 0.055,0.128 0.098,0.263 0.129,0.41 0.004,0.018 0.007,0.036 0.01,0.055 0.061,0.328 0.057,0.713 -0.031,1.18z"/>
   <path class="fil19" d="M108.442 159.988l-7.671 0c0,0 -0.168,-0.322 0.024,-1.18 0.029,-0.134 0.067,-0.281 0.116,-0.441 0.003,-0.008 0.005,-0.016 0.007,-0.024 0.072,-0.237 0.154,-0.529 0.242,-0.844 0.351,-1.285 0.765,-2.963 0.765,-2.963 0,0 1.276,-2.732 2.769,-2.05 1.31,0.599 0.999,2.311 0.999,2.311 0,0 0.129,1.006 1.122,1.893 0.614,0.547 1.225,0.972 1.519,1.653 0.055,0.128 0.098,0.263 0.129,0.41 0.004,0.018 0.007,0.036 0.01,0.055 0.061,0.328 0.057,0.713 -0.031,1.18z"/>
   <path class="fil20" d="M100.795 158.808c-0.192,0.858 -0.024,1.18 -0.024,1.18l7.671 0c0.088,-0.467 0.092,-0.852 0.031,-1.18l-7.678 0z"/>
   <path class="fil14" d="M105.385 155.228c-0.432,-0.337 -0.998,-0.293 -1.386,0.086 -0.104,0.101 -0.265,-0.059 -0.16,-0.161 0.484,-0.472 1.176,-0.499 1.706,-0.086 0.115,0.09 -0.047,0.249 -0.16,0.161z"/>
   <path class="fil14" d="M105.601 155.944c-0.431,-0.336 -0.997,-0.293 -1.385,0.086 -0.105,0.102 -0.265,-0.058 -0.16,-0.16 0.484,-0.473 1.175,-0.499 1.705,-0.086 0.115,0.089 -0.046,0.249 -0.16,0.16z"/>
   <path class="fil14" d="M105.819 156.603c-0.432,-0.337 -0.998,-0.293 -1.386,0.086 -0.104,0.101 -0.265,-0.059 -0.16,-0.16 0.484,-0.473 1.176,-0.499 1.706,-0.087 0.115,0.09 -0.047,0.249 -0.16,0.161z"/>
   <path class="fil5" d="M82.145 79.644c0,0 -6.379,28.294 -6.957,34.041 -0.579,5.747 -4.6,35.812 -4.6,35.812l7.545 1.721c0,0 8.579,-32.354 9.197,-35.464 0.619,-3.109 8.375,-25.523 8.375,-25.523l-0.994 -8.608 -12.566 -1.979z"/>
   <path class="fil8" d="M86.59 82.225c-0.902,3.079 -3.313,5.552 -6.287,6.451 -0.16,0.048 -0.092,0.309 0.07,0.26 3.061,-0.926 5.54,-3.47 6.468,-6.639 0.049,-0.167 -0.202,-0.238 -0.251,-0.072z"/>
   <path class="fil21" d="M93.949 90.743c-3.329,6.946 -5.248,14.501 -7.601,21.834 -2.442,7.609 -4.395,15.377 -6.147,23.186 -0.987,4.396 -1.91,8.807 -2.821,13.221 -0.035,0.17 0.216,0.242 0.251,0.072 1.613,-7.814 3.264,-15.624 5.238,-23.35 1.946,-7.614 4.355,-15.081 6.691,-22.572 1.302,-4.177 2.727,-8.318 4.614,-12.255 0.074,-0.155 -0.15,-0.292 -0.225,-0.136z"/>
   <path class="fil21" d="M71.2 147.728c2.405,0.633 4.81,1.265 7.216,1.897 0.162,0.043 0.231,-0.218 0.069,-0.261 -2.405,-0.632 -4.811,-1.264 -7.216,-1.896 -0.162,-0.043 -0.231,0.218 -0.069,0.26z"/>
   <path class="fil5" d="M108.899 103.506c0.899,-7.929 0.265,-24.742 0.265,-24.742l-15.932 -0.796c0,0 2.264,16.273 4.227,24.639l11.44 0.899z"/>
   <path class="fil8" d="M95.607 82.225c-0.175,2.693 -0.347,5.391 -0.522,8.084 -0.009,0.174 -0.268,0.174 -0.26,0 0.092,-1.381 0.18,-2.767 0.268,-4.153 -0.64,0.513 -1.389,-0.109 -1.598,-0.795 -0.343,-1.112 -0.213,-2.432 0.055,-3.545 0.041,-0.169 0.292,-0.095 0.251,0.07 -0.189,0.782 -0.268,1.581 -0.214,2.385 0.025,0.408 0.063,0.877 0.247,1.251 0.205,0.417 0.724,0.769 1.138,0.391 0.046,-0.039 0.096,-0.044 0.138,-0.022 0.079,-1.22 0.159,-2.446 0.238,-3.666 0.008,-0.174 0.268,-0.174 0.259,0z"/>
   <path class="fil21" d="M103.231 82.684c-0.036,3.57 2.61,6.56 6.031,6.841 0.164,0.013 0.163,-0.253 0,-0.266 -3.283,-0.269 -5.81,-3.159 -5.775,-6.575 0.002,-0.171 -0.254,-0.171 -0.256,0z"/>
   <path class="fil5" d="M100.504 151.916l7.1 0.012c0.938,-11.38 1.539,-51.353 1.539,-51.353l-13.438 -7.416c0,0 1.634,17.372 2.275,23.136 0,0 1.168,27.605 2.524,35.621z"/>
   <path class="fil8" d="M96.815 91.101c0.873,7.594 1.574,15.208 2.183,22.828 0.608,7.6 1.127,15.207 1.641,22.814 0.291,4.314 0.581,8.629 0.885,12.942 0.012,0.172 0.272,0.174 0.26,0 -0.538,-7.642 -1.033,-15.288 -1.57,-22.93 -0.534,-7.601 -1.109,-15.199 -1.811,-22.785 -0.397,-4.294 -0.835,-8.585 -1.328,-12.869 -0.02,-0.17 -0.28,-0.172 -0.26,0z"/>
   <path class="fil21" d="M100.325 149.811c2.439,0.006 4.879,0.012 7.318,0.018 0.168,0 0.168,-0.27 0,-0.271 -2.439,-0.005 -4.879,-0.011 -7.318,-0.017 -0.167,0 -0.168,0.27 0,0.27z"/>
   <path class="fil21" d="M104.909 117.512c1.066,0.409 2.209,0.415 3.279,0.019 0.154,-0.057 0.087,-0.313 -0.068,-0.256 -1.031,0.382 -2.116,0.375 -3.143,-0.019 -0.154,-0.059 -0.221,0.198 -0.068,0.256z"/>
   <path class="fil5" d="M109.648 85.249c-0.263,-3.529 -1.315,-13.726 -1.343,-24.805 0,-0.312 0.034,-0.617 0.061,-0.917 0.27,-3.076 0.95,-5.391 1.443,-7.433 0.547,-2.262 0.864,-4.188 0.143,-6.441 -0.59,-1.842 -1.551,-2.815 -2.745,-3.417 -0.106,-0.053 -0.214,-0.104 -0.324,-0.151 -1.536,-0.672 -3.412,-0.838 -5.357,-1.459 -0.894,-0.285 -1.803,-0.666 -2.7,-1.237 -4.558,-2.903 -7.031,0 -7.031,0 0,0 -0.724,0.158 -1.74,0.423 -0.41,0.107 -0.868,0.23 -1.346,0.367 -0.097,0.027 -0.195,0.056 -0.294,0.085 -1.626,0.478 -3.409,1.099 -4.283,1.73 -1.21,0.873 -1.526,4.965 -1.613,9.308 -0.002,0.108 -0.004,0.216 -0.006,0.324 -0.006,0.373 -0.011,0.747 -0.015,1.121 -0.006,0.564 -0.009,1.126 -0.011,1.681l0 0c0,0.123 -0.001,0.245 -0.001,0.366 -0.004,1.4 -0.002,2.742 -0.019,3.919 -0.001,0.132 -0.003,0.261 -0.006,0.389 -0.012,0.682 0.344,1.382 0.312,1.915 -0.015,0.231 -0.1,5.179 -0.119,5.376 -0.203,2.096 -1.203,13.981 -1.85,16.877 8.332,1.903 16.54,1.943 28.844,1.979z"/>
   <path class="fil22" d="M109.648 85.249c-0.263,-3.529 -1.315,-13.726 -1.343,-24.805 0,-0.312 0.034,-0.617 0.061,-0.917 0.27,-3.076 0.95,-5.391 1.443,-7.433 0.547,-2.262 0.864,-4.188 0.143,-6.441 -0.59,-1.842 -1.551,-2.815 -2.745,-3.417 -0.106,-0.053 -0.214,-0.104 -0.324,-0.151 -1.536,-0.672 -3.412,-0.838 -5.357,-1.459 -0.894,-0.285 -1.803,-0.666 -2.7,-1.237 -4.558,-2.903 -7.031,0 -7.031,0 0,0 -0.724,0.158 -1.74,0.423 -0.41,0.107 -0.868,0.23 -1.346,0.367 -0.097,0.027 -0.195,0.056 -0.294,0.085 -1.626,0.478 -3.409,1.099 -4.283,1.73 -1.21,0.873 -1.526,4.965 -1.613,9.308 -0.002,0.108 -0.004,0.216 -0.006,0.324 -0.006,0.373 -0.011,0.747 -0.015,1.121 -0.006,0.564 -0.009,1.126 -0.011,1.681l0 0c0,0.123 -0.001,0.245 -0.001,0.366 -0.004,1.4 -0.002,2.742 -0.019,3.919 -0.001,0.132 -0.003,0.261 -0.006,0.389 -0.012,0.682 0.344,1.382 0.312,1.915 -0.015,0.231 -0.1,5.179 -0.119,5.376 -0.203,2.096 -1.203,13.981 -1.85,16.877 8.332,1.903 16.54,1.943 28.844,1.979z"/>
   <path class="fil5" d="M83.376 60.14l-7.047 -2.072c0,0 3.225,-14.26 7.803,-16.074 4.577,-1.815 -0.756,18.146 -0.756,18.146z"/>
   <path class="fil22" d="M83.376 60.14l-7.047 -2.072c0,0 3.225,-14.26 7.803,-16.074 4.577,-1.815 -0.756,18.146 -0.756,18.146z"/>
   <path class="fil7" d="M85.193 52.002l-1.485 14.59 -1.133 0.644 -0.562 6.086 -8.578 46.592 33.421 0c0.478,-7.894 -0.625,-42.896 -0.625,-42.896l2.735 -0.502 -0.137 -4.398c0,0 -4.078,-4.468 -4.011,-5.347 0.068,-0.878 -2.007,-14.776 -2.007,-14.776l-17.618 0.007z"/>
   <path class="fil5" d="M100.672 40.321c0,0 -1.116,8.841 -1.364,13.447l2.31 0 1.597 -12.632c0,0 -1.407,-0.815 -2.543,-0.815z"/>
   <path class="fil5" d="M86.393 54.123l-0.406 -13.005c0,0 0.917,-1.202 2.088,-0.792 0.394,0.138 0.65,13.797 0.65,13.797l-2.332 0z"/>
   <path class="fil21" d="M88.315 58.011c0,0 -0.947,8.364 5.864,8.364 6.81,0 5.797,-8.364 5.797,-8.364l-11.661 0z"/>
   <path class="fil7" d="M87.893 52.993c0,0.272 -0.221,0.493 -0.493,0.493 -0.272,0 -0.493,-0.221 -0.493,-0.493 0,-0.272 0.221,-0.493 0.493,-0.493 0.272,0 0.493,0.221 0.493,0.493z"/>
   <path class="fil7" d="M100.962 52.5c0,0.273 -0.221,0.493 -0.493,0.493 -0.272,0 -0.493,-0.22 -0.493,-0.493 0,-0.272 0.221,-0.492 0.493,-0.492 0.272,0 0.493,0.22 0.493,0.492z"/>
   <path class="fil18" d="M97.733 40.492c0,0 -0.594,-2.53 0.496,-7.114 -0.001,-0.004 -0.244,-0.098 -0.244,-0.103 0.149,-0.641 0.313,-1.234 0.47,-1.749 0.003,-0.016 0.003,-0.02 0.003,-0.02l-5.996 4.121c0.216,1.438 -0.167,4.256 -0.418,5.45 0,0 -0.677,2.174 2.169,2.129 2.079,-0.033 3.52,-2.714 3.52,-2.714z"/>
   <path class="fil21" d="M95.684 36.667c-0.742,0.851 -2.034,1.33 -3.218,1.355 0.017,-0.106 0.014,-0.264 0.026,-0.369 0.02,-0.165 0.019,-0.417 0.028,-0.59 0.009,-0.213 0.013,-0.445 0.002,-0.665 -0.01,-0.088 -0.045,-0.075 -0.056,-0.162l-0.021 -0.18 3.587 -1.218c0.291,0.213 0.251,1.139 -0.348,1.829z"/>
   <path class="fil18" d="M100.539 27.866c0.859,-3.851 -2.486,-7.396 -6.479,-6.47 -4.054,0.94 -5.505,6.628 -5.228,10.255 0.309,4.03 4.825,6.577 8.258,4.045 2.282,-1.682 2.59,-3.98 3.449,-7.83z"/>
   <path class="fil7" d="M97.083 29.232c0.626,0.726 1.168,-0.012 2.654,-0.8 0.204,-0.108 0.429,-0.194 0.74,-0.203 -0.35,1.288 -0.686,2.356 -0.958,3.124 -0.082,0.231 -0.169,0.44 -0.265,0.634 1.152,-1.384 1.716,-3.547 2.133,-4.291 0.085,-0.151 0.151,-0.297 0.203,-0.439 -0.023,-0.052 -0.045,-0.103 -0.07,-0.152 -0.106,-0.219 0.519,0.098 0.366,-0.087 -0.244,-0.293 -0.543,-0.546 -0.872,-0.764 -1.069,-0.709 -2.273,-1.022 -3.295,-1.19 -0.103,1.224 -1.148,3.573 -0.636,4.168z"/>
   <path class="fil18" d="M101.614 30.665c-0.418,1.019 -1.268,1.744 -2.111,2.074 -1.267,0.495 -1.602,-0.871 -1.374,-2.142 0.206,-1.145 0.667,-2.52 1.998,-2.472 1.311,0.047 1.964,1.376 1.487,2.54z"/>
   <path class="fil7" d="M94.965 28.717c-0.036,0.402 -0.277,0.706 -0.54,0.681 -0.263,-0.026 -0.447,-0.373 -0.411,-0.774 0.035,-0.401 0.277,-0.706 0.539,-0.68 0.263,0.025 0.447,0.372 0.412,0.773z"/>
   <path class="fil7" d="M91.073 28.455c-0.035,0.401 -0.277,0.706 -0.539,0.68 -0.263,-0.026 -0.447,-0.372 -0.412,-0.774 0.036,-0.401 0.278,-0.706 0.54,-0.68 0.263,0.026 0.447,0.372 0.411,0.774z"/>
   <path class="fil23" d="M92.231 27.973c0,0 -1.447,1.882 -1.926,2.659 0.515,0.554 1.498,0.406 1.498,0.406l0.428 -3.065z"/>
   <path class="fil7" d="M95.996 26.546c-0.063,0.02 -0.134,0.006 -0.186,-0.043 -0.604,-0.563 -1.237,-0.435 -1.302,-0.42 -0.102,0.024 -0.204,-0.038 -0.23,-0.139 -0.025,-0.101 0.037,-0.203 0.138,-0.227 0.036,-0.009 0.885,-0.202 1.651,0.513 0.076,0.071 0.081,0.19 0.01,0.266 -0.023,0.024 -0.051,0.041 -0.081,0.05z"/>
   <path class="fil8" d="M98.82 30.603c-0.006,0 -0.012,-0.001 -0.018,-0.002 -0.049,-0.01 -0.08,-0.057 -0.07,-0.106 0.074,-0.362 0.242,-0.701 0.487,-0.978 0.165,-0.188 0.436,-0.423 0.792,-0.478 0.349,-0.054 0.699,0.101 0.852,0.377 0.023,0.043 0.008,0.097 -0.035,0.121 -0.043,0.024 -0.098,0.008 -0.122,-0.035 -0.115,-0.208 -0.398,-0.328 -0.667,-0.286 -0.303,0.047 -0.541,0.254 -0.686,0.419 -0.224,0.254 -0.378,0.564 -0.445,0.896 -0.009,0.042 -0.047,0.072 -0.088,0.072z"/>
   <path class="fil7" d="M89.316 26.234c-0.034,-0.01 -0.066,-0.031 -0.091,-0.061 -0.066,-0.081 -0.055,-0.2 0.025,-0.266 0.803,-0.662 1.629,-0.4 1.668,-0.393 0.099,0.032 0.154,0.138 0.123,0.238 -0.03,0.099 -0.135,0.154 -0.233,0.123 -0.034,-0.012 -0.674,-0.206 -1.318,0.325 -0.05,0.042 -0.116,0.053 -0.174,0.034z"/>
   <path class="fil7" d="M98.308 32.381c-0.251,-0.27 -0.38,-0.635 -0.436,-0.999 -0.127,-0.812 0.083,-1.672 0.57,-2.334l-1.359 0.184c0,0 -0.191,1.668 -1.293,1.824 -1.102,0.156 -1.442,-0.237 -2.346,-0.051 -0.904,0.188 -0.999,0.694 -0.999,0.694 0,0 -0.725,-0.324 -1.367,-0.193 -0.643,0.131 -1.872,0.734 -2.099,1.056 -0.227,0.321 -0.387,1.232 0.271,1.361 -0.272,0.042 -0.61,0.7 -0.588,0.974 0.022,0.273 0.211,0.512 0.443,0.658 -0.279,0.237 -0.357,0.679 -0.178,0.997 0.181,0.319 0.599,0.48 0.946,0.363 -0.075,0.275 0.037,0.578 0.236,0.783 0.199,0.205 0.472,0.322 0.75,0.389 0.509,0.123 1.056,0.091 1.547,-0.092 0.137,0.252 0.472,0.301 0.758,0.32 0.522,0.035 1.059,0.064 1.557,-0.098 0.497,-0.163 0.952,-0.564 1.021,-1.083 0.451,-0.069 0.915,-0.161 1.291,-0.42 0.376,-0.259 0.642,-0.73 0.528,-1.172 -0.021,-0.083 -0.054,-0.172 -0.017,-0.249 0.024,-0.049 0.072,-0.081 0.117,-0.112 0.841,-0.567 1.446,-1.474 1.647,-2.468 -0.357,0.095 -0.748,-0.062 -1,-0.332z"/>
   <path class="fil14" d="M93.942 31.591c0,0 -0.625,0.661 -1.934,1.007 0,0 0.473,0.835 1.293,0.54 0.992,-0.357 0.641,-1.547 0.641,-1.547z"/>
   <path class="fil7" d="M97.611 22.25c0.022,0.014 0.043,0.029 0.06,0.049 0.063,0.075 0.065,0.183 0.064,0.28 -0.01,0.917 -0.02,1.833 -0.031,2.75 -0.002,0.207 -0.003,0.421 0.077,0.613 0.134,0.321 0.464,0.51 0.778,0.662 0.729,0.353 1.491,0.637 2.274,0.847 0.36,0.097 0.734,0.178 1.104,0.128 0.179,-0.024 0.348,-0.077 0.508,-0.151 0.53,-0.244 0.468,-1.003 -0.076,-1.214 -0.004,-0.002 -0.008,-0.003 -0.012,-0.005 -0.412,-0.163 -0.815,-0.532 -0.977,-0.945 -0.183,-0.466 0.166,-0.781 0.143,-1.631 -0.019,-0.732 -0.402,-1.494 -1.252,-1.885 -0.666,-0.306 -1.476,-0.294 -2.206,-0.355l-0.454 0.857z"/>
   <path class="fil7" d="M98.057 21.096c-0.877,-1.087 -2.34,-1.669 -3.724,-1.485 -0.829,0.111 -1.638,0.475 -2.468,0.374 -0.365,-0.044 -0.711,-0.177 -1.06,-0.291 -0.227,-0.074 -0.461,-0.141 -0.699,-0.132 -0.238,0.009 -0.484,0.106 -0.619,0.302 -0.135,0.196 -0.122,0.498 0.064,0.646 -0.205,-0.173 -0.419,-0.351 -0.678,-0.418 -0.556,-0.145 -1.152,0.326 -1.24,0.893 -0.088,0.568 0.257,1.145 0.749,1.441 -0.273,0.045 -0.55,-0.139 -0.82,-0.076 -0.254,0.059 -0.416,0.333 -0.415,0.594 0.002,0.261 0.134,0.504 0.295,0.709 0.67,0.849 1.804,1.159 2.868,1.354 0.656,0.12 1.323,0.216 1.987,0.161 0.879,-0.072 1.715,-0.406 2.508,-0.79 1.408,-0.683 2.795,-1.606 3.492,-3.008l-0.24 -0.274z"/>
   <path class="fil16" d="M100.4 27.104c-0.269,-0.203 -0.451,-0.519 -0.491,-0.855 -0.116,0.207 -0.097,0.479 -0.243,0.667 -0.169,0.217 -0.487,0.238 -0.762,0.22 -0.249,-0.017 -0.518,-0.06 -0.687,-0.242 -0.139,-0.15 -0.181,-0.363 -0.217,-0.565 -0.065,-0.36 -0.114,-0.488 -0.178,-0.848 0.08,0.413 0.022,1.282 0.147,1.682 0.126,0.4 0.339,0.488 0.717,0.67 0.245,0.119 0.641,-0.004 0.912,0 0.35,0.004 0.701,-0.019 1.047,-0.069 0.289,-0.042 0.625,-0.145 0.713,-0.424 -0.333,0.055 -0.688,-0.032 -0.958,-0.236z"/>
   <path class="fil18" d="M96.571 70.071l12.55 -5.343 -0.997 -6.584 6.425 -2.687c0,0 2.06,9.726 0.661,12.758 -1.399,3.032 -17.193,5.586 -17.193,5.586l-1.446 -3.73z"/>
   <path class="fil5" d="M106.999 59.961l8.925 -4.101c0,0 -6.004,-13.767 -9.381,-13.803 -3.377,-0.036 -1.004,12.688 0.456,17.904z"/>
   <path class="fil22" d="M107.013 59.958l8.925 -4.1c0,0 -6.003,-13.768 -9.381,-13.804 -3.377,-0.036 -1.004,12.689 0.456,17.904z"/>
   <polygon class="fil16" points="82.779,60.815 83.147,48.803 80.804,59.384 82.557,59.903 "/>
   <path class="fil16" d="M105.232 51.372c0,0 -0.107,10.599 1.297,11.251l1.788 -0.502 0.049 -2.594 -1.367 0.434 -1.767 -8.589z"/>
   <path class="fil16" d="M74.03 67.313c0,0 1.788,0.581 1.738,1.261l-1.932 0 0 -0.823 0.194 -0.438z"/>
   <polygon class="fil16" points="73.708,125.757 73.435,127.874 77.376,127.722 77.042,130.266 83.647,130.266 84.819,125.757 "/>
   <path class="fil16" d="M97.583 74.169l0 26.808 11.56 0 0 9.094 -11.56 0 0 5.254 11.183 0 -0.18 11.705 -6.162 0.049 0 2.133 -3.714 1.469 -0.542 -10.287c0,0 -5.003,-0.309 -4.936,-0.48 0.067,-0.171 0.954,-45.606 0.954,-45.606l3.397 -0.139z"/>
   <polygon class="fil7" points="94.946,148.254 85.057,148.254 85.057,127.722 94.946,127.722 "/>
   <polygon class="fil20" points="94.946,148.254 85.057,148.254 85.057,127.722 94.946,127.722 "/>
   <path class="fil9" d="M125.115 107.219l-30.84 0 0 -5.461 25.379 0c3.016,0 5.461,2.445 5.461,5.461z"/>
   <path class="fil24" d="M125.115 107.219l-30.84 0 0 -5.461 25.379 0c3.016,0 5.461,2.445 5.461,5.461z"/>
   <polygon class="fil7" points="125.686,108.549 94.275,108.549 94.275,107.219 125.686,107.219 "/>
   <polygon class="fil7" points="99.69,123.75 98.432,123.75 98.432,108.089 99.69,108.089 "/>
   <polygon class="fil7" points="108.551,125.23 107.508,124.525 118.745,107.884 119.788,108.588 "/>
   <path class="fil5" d="M114.496 116.514l-51.352 0 0 7.352 54.847 0 0 -3.856c0,-1.931 -1.565,-3.496 -3.495,-3.496z"/>
   <path class="fil5" d="M96.571 116.916l-33.427 0 0 -43.984c0,-2.407 1.951,-4.358 4.358,-4.358l24.262 0c2.655,0 4.807,2.152 4.807,4.807l0 43.535z"/>
   <path class="fil16" d="M68.448 123.866l-5.304 0 0 -50.934c0,-2.407 1.951,-4.358 4.358,-4.358l0.946 0 0 55.292z"/>
   <polygon class="fil7" points="115.967,160.226 64.035,160.226 64.035,157.389 115.967,157.389 "/>
   <polygon class="fil22" points="115.967,160.258 64.035,160.258 64.035,157.422 115.967,157.422 "/>
   <polygon class="fil7" points="96.18,156.672 83.823,156.672 83.823,144.315 96.18,144.315 "/>
   <polygon class="fil22" points="96.18,156.672 83.823,156.672 83.823,144.315 96.18,144.315 "/>
   <polygon class="fil7" points="118.347,125.757 62.571,125.757 62.571,123.059 118.347,123.059 "/>
   <polygon class="fil16" points="68.403,116.514 96.571,116.514 96.571,115.325 68.403,115.325 "/>
   <path class="fil9" d="M91.85 107.219l-30.84 0 0 -5.461 25.379 0c3.016,0 5.461,2.445 5.461,5.461z"/>
   <path class="fil24" d="M91.85 107.219l-30.84 0 0 -5.461 25.379 0c3.016,0 5.461,2.445 5.461,5.461z"/>
   <polygon class="fil7" points="92.421,108.549 61.01,108.549 61.01,107.219 92.421,107.219 "/>
   <polygon class="fil7" points="66.425,123.75 65.167,123.75 65.167,108.089 66.425,108.089 "/>
   <polygon class="fil7" points="75.286,125.23 74.243,124.525 85.48,107.884 86.523,108.588 "/>
   <polygon class="fil7" points="101.337,128.401 78.665,128.401 78.665,125.757 101.337,125.757 "/>
   <polygon class="fil20" points="101.337,128.401 78.665,128.401 78.665,125.757 101.337,125.757 "/>
   <polygon class="fil7" points="77.458,157.389 83.811,154.588 96.167,154.588 102.544,157.389 "/>
   <polygon class="fil16" points="94.946,129.212 85.057,129.212 85.057,128.401 94.946,128.401 "/>
   <polygon class="fil22" points="77.458,157.389 83.811,154.588 96.167,154.588 102.544,157.389 "/>
   <path class="fil25" d="M73.161 68.562c0,0 -1.23,3.153 -1.907,3.373 -0.677,0.22 -0.505,-0.781 -0.505,-0.781 0,0 -0.257,1.09 -0.734,1.043 -0.573,-0.055 -0.389,-1.104 -0.389,-1.104 0,0 -0.246,0.882 -0.668,0.812 -0.438,-0.072 -0.313,-1.27 -0.313,-1.27 0,0 -0.291,0.588 -0.557,0.373 -0.265,-0.214 -0.05,-2.761 0.515,-3.45 0.566,-0.689 3.824,-0.295 4.518,-0.062 0.693,0.232 1.116,-0.012 2.087,1.013l-2.047 0.053z"/>
   <path class="fil8" d="M70.696 71.145c0,-0.002 0,-0.003 0.001,-0.005l0.539 -1.878c0.007,-0.025 0.036,-0.04 0.065,-0.032 0.028,0.007 0.046,0.035 0.039,0.059l-0.539 1.879c-0.007,0.025 -0.037,0.039 -0.065,0.032 -0.027,-0.007 -0.044,-0.031 -0.04,-0.055z"/>
   <path class="fil8" d="M69.583 71.03c0,0 0,-0.001 0,-0.001l0.374 -1.846c0.005,-0.026 0.033,-0.042 0.062,-0.036 0.029,0.006 0.044,0.026 0.043,0.057l-0.373 1.845c-0.006,0.026 -0.034,0.042 -0.063,0.037 -0.029,-0.006 -0.048,-0.031 -0.043,-0.056z"/>
   <path class="fil8" d="M68.603 70.562l0.238 -1.379c0.005,-0.026 0.032,-0.042 0.062,-0.037 0.029,0.005 0.049,0.03 0.044,0.056l-0.238 1.379c-0.005,0.026 -0.032,0.043 -0.061,0.038 -0.029,-0.006 -0.05,-0.031 -0.045,-0.057z"/>
   <path class="fil26" d="M96.045 71.26c0,0 -2.642,1.845 -2.696,2.555 -0.054,0.71 0.878,0.306 0.878,0.306 0,0 -0.998,0.507 -0.841,0.96 0.19,0.544 1.165,0.117 1.165,0.117 0,0 -0.799,0.447 -0.631,0.841 0.173,0.408 1.308,0.005 1.308,0.005 0,0 -0.503,0.421 -0.231,0.628 0.271,0.208 2.695,-0.602 3.231,-1.314 0.536,-0.712 -0.616,-3.786 -1.005,-4.405 -0.39,-0.619 -0.554,-1.647 -2.222,-1.18l1.044 1.487z"/>
   <path class="fil8" d="M94.248 74.171c0.002,-0.001 0.003,-0.001 0.005,-0.002l1.698 -0.967c0.023,-0.013 0.03,-0.045 0.016,-0.071 -0.014,-0.026 -0.045,-0.036 -0.067,-0.024l-1.699 0.967c-0.022,0.013 -0.029,0.045 -0.015,0.071 0.013,0.025 0.04,0.036 0.062,0.026z"/>
   <path class="fil8" d="M94.623 75.226c0,-0.001 0.001,-0.001 0.001,-0.001l1.705 -0.799c0.024,-0.011 0.033,-0.042 0.021,-0.069 -0.013,-0.027 -0.037,-0.036 -0.066,-0.028l-1.705 0.798c-0.024,0.011 -0.033,0.042 -0.021,0.069 0.013,0.027 0.041,0.04 0.065,0.03z"/>
   <path class="fil8" d="M95.308 76.067l1.284 -0.557c0.024,-0.01 0.034,-0.041 0.023,-0.068 -0.012,-0.027 -0.042,-0.041 -0.066,-0.031l-1.284 0.558c-0.024,0.01 -0.033,0.041 -0.022,0.068 0.012,0.027 0.041,0.041 0.065,0.03z"/>
   <path class="fil25" d="M73.161 68.562c0,0 -1.23,3.153 -1.907,3.373 -0.677,0.22 -0.505,-0.781 -0.505,-0.781 0,0 -0.257,1.09 -0.734,1.043 -0.573,-0.055 -0.389,-1.104 -0.389,-1.104 0,0 -0.246,0.882 -0.668,0.812 -0.438,-0.072 -0.313,-1.27 -0.313,-1.27 0,0 -0.291,0.588 -0.557,0.373 -0.265,-0.214 -0.05,-2.761 0.515,-3.45 0.566,-0.689 3.824,-0.295 4.518,-0.062 0.693,0.232 1.116,-0.012 2.087,1.013l-2.047 0.053z"/>
   <path class="fil25" d="M73.161 68.562c0,0 -1.23,3.153 -1.907,3.373 -0.677,0.22 -0.505,-0.781 -0.505,-0.781 0,0 -0.257,1.09 -0.734,1.043 -0.573,-0.055 -0.389,-1.104 -0.389,-1.104 0,0 -0.246,0.882 -0.668,0.812 -0.438,-0.072 -0.313,-1.27 -0.313,-1.27 0,0 -0.291,0.588 -0.557,0.373 -0.265,-0.214 -0.05,-2.761 0.515,-3.45 0.566,-0.689 3.824,-0.295 4.518,-0.062 0.693,0.232 1.116,-0.012 2.087,1.013l-2.047 0.053z"/>
   <path class="fil25" d="M73.161 68.562c0,0 -1.23,3.153 -1.907,3.373 -0.677,0.22 -0.505,-0.781 -0.505,-0.781 0,0 -0.257,1.09 -0.734,1.043 -0.573,-0.055 -0.389,-1.104 -0.389,-1.104 0,0 -0.246,0.882 -0.668,0.812 -0.438,-0.072 -0.313,-1.27 -0.313,-1.27 0,0 -0.291,0.588 -0.557,0.373 -0.265,-0.214 -0.05,-2.761 0.515,-3.45 0.566,-0.689 3.824,-0.295 4.518,-0.062 0.693,0.232 1.116,-0.012 2.087,1.013l-2.047 0.053z"/>
   <path class="fil26" d="M96.045 71.26c0,0 -2.642,1.845 -2.696,2.555 -0.054,0.71 0.878,0.306 0.878,0.306 0,0 -0.998,0.507 -0.841,0.96 0.19,0.544 1.165,0.117 1.165,0.117 0,0 -0.799,0.447 -0.631,0.841 0.173,0.408 1.308,0.005 1.308,0.005 0,0 -0.503,0.421 -0.231,0.628 0.271,0.208 2.695,-0.602 3.231,-1.314 0.536,-0.712 -0.616,-3.786 -1.005,-4.405 -0.39,-0.619 -0.554,-1.647 -2.222,-1.18l1.044 1.487z"/>
   <path class="fil26" d="M96.045 71.26c0,0 -2.642,1.845 -2.696,2.555 -0.054,0.71 0.878,0.306 0.878,0.306 0,0 -0.998,0.507 -0.841,0.96 0.19,0.544 1.165,0.117 1.165,0.117 0,0 -0.799,0.447 -0.631,0.841 0.173,0.408 1.308,0.005 1.308,0.005 0,0 -0.503,0.421 -0.231,0.628 0.271,0.208 2.695,-0.602 3.231,-1.314 0.536,-0.712 -0.616,-3.786 -1.005,-4.405 -0.39,-0.619 -0.554,-1.647 -2.222,-1.18l1.044 1.487z"/>
   <path class="fil26" d="M96.045 71.26c0,0 -2.642,1.845 -2.696,2.555 -0.054,0.71 0.878,0.306 0.878,0.306 0,0 -0.998,0.507 -0.841,0.96 0.19,0.544 1.165,0.117 1.165,0.117 0,0 -0.799,0.447 -0.631,0.841 0.173,0.408 1.308,0.005 1.308,0.005 0,0 -0.503,0.421 -0.231,0.628 0.271,0.208 2.695,-0.602 3.231,-1.314 0.536,-0.712 -0.616,-3.786 -1.005,-4.405 -0.39,-0.619 -0.554,-1.647 -2.222,-1.18l1.044 1.487z"/>
   <path class="fil26" d="M96.045 71.26c0,0 -2.642,1.845 -2.696,2.555 -0.054,0.71 0.878,0.306 0.878,0.306 0,0 -0.998,0.507 -0.841,0.96 0.19,0.544 1.165,0.117 1.165,0.117 0,0 -0.799,0.447 -0.631,0.841 0.173,0.408 1.308,0.005 1.308,0.005 0,0 -0.503,0.421 -0.231,0.628 0.271,0.208 2.695,-0.602 3.231,-1.314 0.536,-0.712 -0.616,-3.786 -1.005,-4.405 -0.39,-0.619 -0.554,-1.647 -2.222,-1.18l1.044 1.487z"/>
   <path class="fil26" d="M96.045 71.26c0,0 -2.642,1.845 -2.696,2.555 -0.054,0.71 0.878,0.306 0.878,0.306 0,0 -0.998,0.507 -0.841,0.96 0.19,0.544 1.165,0.117 1.165,0.117 0,0 -0.799,0.447 -0.631,0.841 0.173,0.408 1.308,0.005 1.308,0.005 0,0 -0.503,0.421 -0.231,0.628 0.271,0.208 2.695,-0.602 3.231,-1.314 0.536,-0.712 -0.616,-3.786 -1.005,-4.405 -0.39,-0.619 -0.554,-1.647 -2.222,-1.18l1.044 1.487z"/>
   <path class="fil26" d="M96.045 71.26c0,0 -2.642,1.845 -2.696,2.555 -0.054,0.71 0.878,0.306 0.878,0.306 0,0 -0.998,0.507 -0.841,0.96 0.19,0.544 1.165,0.117 1.165,0.117 0,0 -0.799,0.447 -0.631,0.841 0.173,0.408 1.308,0.005 1.308,0.005 0,0 -0.503,0.421 -0.231,0.628 0.271,0.208 2.695,-0.602 3.231,-1.314 0.536,-0.712 -0.616,-3.786 -1.005,-4.405 -0.39,-0.619 -0.554,-1.647 -2.222,-1.18l1.044 1.487z"/>
   <path class="fil26" d="M96.045 71.26c0,0 -2.642,1.845 -2.696,2.555 -0.054,0.71 0.878,0.306 0.878,0.306 0,0 -0.998,0.507 -0.841,0.96 0.19,0.544 1.165,0.117 1.165,0.117 0,0 -0.799,0.447 -0.631,0.841 0.173,0.408 1.308,0.005 1.308,0.005 0,0 -0.503,0.421 -0.231,0.628 0.271,0.208 2.695,-0.602 3.231,-1.314 0.536,-0.712 -0.616,-3.786 -1.005,-4.405 -0.39,-0.619 -0.554,-1.647 -2.222,-1.18l1.044 1.487z"/>
   <path class="fil26" d="M96.045 71.26c0,0 -2.642,1.845 -2.696,2.555 -0.054,0.71 0.878,0.306 0.878,0.306 0,0 -0.998,0.507 -0.841,0.96 0.19,0.544 1.165,0.117 1.165,0.117 0,0 -0.799,0.447 -0.631,0.841 0.173,0.408 1.308,0.005 1.308,0.005 0,0 -0.503,0.421 -0.231,0.628 0.271,0.208 2.695,-0.602 3.231,-1.314 0.536,-0.712 -0.616,-3.786 -1.005,-4.405 -0.39,-0.619 -0.554,-1.647 -2.222,-1.18l1.044 1.487z"/>
   <path class="fil26" d="M96.045 71.26c0,0 -2.642,1.845 -2.696,2.555 -0.054,0.71 0.878,0.306 0.878,0.306 0,0 -0.998,0.507 -0.841,0.96 0.19,0.544 1.165,0.117 1.165,0.117 0,0 -0.799,0.447 -0.631,0.841 0.173,0.408 1.308,0.005 1.308,0.005 0,0 -0.503,0.421 -0.231,0.628 0.271,0.208 2.695,-0.602 3.231,-1.314 0.536,-0.712 -0.616,-3.786 -1.005,-4.405 -0.39,-0.619 -0.554,-1.647 -2.222,-1.18l1.044 1.487z"/>
   <path class="fil26" d="M96.045 71.26c0,0 -2.642,1.845 -2.696,2.555 -0.054,0.71 0.878,0.306 0.878,0.306 0,0 -0.998,0.507 -0.841,0.96 0.19,0.544 1.165,0.117 1.165,0.117 0,0 -0.799,0.447 -0.631,0.841 0.173,0.408 1.308,0.005 1.308,0.005 0,0 -0.503,0.421 -0.231,0.628 0.271,0.208 2.695,-0.602 3.231,-1.314 0.536,-0.712 -0.616,-3.786 -1.005,-4.405 -0.39,-0.619 -0.554,-1.647 -2.222,-1.18l1.044 1.487z"/>
   <path class="fil26" d="M96.045 71.26c0,0 -2.642,1.845 -2.696,2.555 -0.054,0.71 0.878,0.306 0.878,0.306 0,0 -0.998,0.507 -0.841,0.96 0.19,0.544 1.165,0.117 1.165,0.117 0,0 -0.799,0.447 -0.631,0.841 0.173,0.408 1.308,0.005 1.308,0.005 0,0 -0.503,0.421 -0.231,0.628 0.271,0.208 2.695,-0.602 3.231,-1.314 0.536,-0.712 -0.616,-3.786 -1.005,-4.405 -0.39,-0.619 -0.554,-1.647 -2.222,-1.18l1.044 1.487z"/>
   <path class="fil26" d="M96.045 71.26c0,0 -2.642,1.845 -2.696,2.555 -0.054,0.71 0.878,0.306 0.878,0.306 0,0 -0.998,0.507 -0.841,0.96 0.19,0.544 1.165,0.117 1.165,0.117 0,0 -0.799,0.447 -0.631,0.841 0.173,0.408 1.308,0.005 1.308,0.005 0,0 -0.503,0.421 -0.231,0.628 0.271,0.208 2.695,-0.602 3.231,-1.314 0.536,-0.712 -0.616,-3.786 -1.005,-4.405 -0.39,-0.619 -0.554,-1.647 -2.222,-1.18l1.044 1.487z"/>
   <path class="fil26" d="M96.045 71.26c0,0 -2.642,1.845 -2.696,2.555 -0.054,0.71 0.878,0.306 0.878,0.306 0,0 -0.998,0.507 -0.841,0.96 0.19,0.544 1.165,0.117 1.165,0.117 0,0 -0.799,0.447 -0.631,0.841 0.173,0.408 1.308,0.005 1.308,0.005 0,0 -0.503,0.421 -0.231,0.628 0.271,0.208 2.695,-0.602 3.231,-1.314 0.536,-0.712 -0.616,-3.786 -1.005,-4.405 -0.39,-0.619 -0.554,-1.647 -2.222,-1.18l1.044 1.487z"/>
  </g>
 </g>
</svg>
